<?xml version="1.0" standalone="no"?>
<!DOCTYPE svg PUBLIC "-//W3C//DTD SVG 20010904//EN"
 "http://www.w3.org/TR/2001/REC-SVG-20010904/DTD/svg10.dtd">
<svg version="1.0" xmlns="http://www.w3.org/2000/svg"
 width="225.000000pt" height="225.000000pt" viewBox="0 0 225.000000 225.000000"
 preserveAspectRatio="xMidYMid meet">
<metadata>
Created by potrace 1.10, written by Peter Selinger 2001-2011
</metadata>
<g transform="translate(0.000000,225.000000) scale(0.100000,-0.100000)"
fill="#000000" stroke="none">
<path d="M918 2201 c-227 -50 -395 -138 -555 -294 -437 -424 -442 -1128 -13
-1558 430 -430 1125 -431 1554 -3 373 374 429 946 134 1394 -54 83 -204 234
-287 290 -94 63 -238 128 -348 157 -136 35 -358 42 -485 14z m478 -36 c207
-56 378 -156 522 -305 41 -43 122 -155 122 -169 0 -6 4 -11 9 -11 8 0 22 -26
57 -107 29 -69 33 -78 45 -118 6 -22 15 -49 19 -60 29 -77 40 -338 19 -449
-30 -161 -87 -304 -168 -425 -140 -207 -365 -369 -601 -433 -300 -80 -634 -30
-878 134 -138 92 -194 147 -309 303 -17 23 -45 72 -63 110 -48 103 -63 144
-81 228 -11 50 -22 94 -25 98 -5 9 -6 269 0 309 1 14 6 34 9 45 3 11 9 36 12
55 26 163 130 354 274 504 165 171 402 289 636 316 117 14 298 2 401 -25z"/>
<path d="M1078 1852 c-19 -23 -33 -58 -47 -117 -14 -57 -24 -71 -43 -59 -7 5
-24 10 -38 12 -14 2 -53 11 -88 22 -61 18 -64 18 -81 1 -18 -18 -27 -45 -38
-108 -4 -25 0 -34 19 -47 13 -9 38 -19 56 -22 61 -12 64 -26 36 -149 -14 -60
-28 -113 -30 -117 -3 -5 -7 -22 -9 -39 -6 -41 -34 -150 -46 -171 -5 -10 -9
-29 -9 -43 0 -14 -7 -39 -15 -56 -16 -30 -28 -31 -90 -9 -31 11 -50 -8 -85
-85 -32 -69 -32 -69 -11 -86 11 -9 63 -26 115 -38 100 -23 116 -32 95 -57 -6
-8 -9 -17 -6 -21 3 -3 0 -21 -8 -40 -8 -20 -15 -51 -15 -70 0 -29 5 -36 33
-47 17 -8 48 -16 68 -20 47 -8 59 5 84 103 17 63 23 76 40 76 23 0 24 -14 4
-119 -12 -67 -12 -70 10 -87 26 -22 81 -34 114 -25 19 4 26 17 37 63 7 32 17
63 21 68 4 6 8 18 10 28 4 16 18 18 130 20 121 2 128 3 175 32 148 92 191 300
86 417 -30 33 -34 41 -21 49 64 35 109 117 109 199 0 49 -5 69 -31 110 -32 52
-122 123 -172 135 -34 9 -39 26 -22 76 8 22 17 60 20 83 7 49 -6 62 -83 85
-46 13 -72 4 -72 -26 0 -8 -3 -12 -7 -10 -5 3 -9 -11 -10 -31 -1 -20 -7 -38
-12 -40 -6 -2 -11 -19 -11 -39 0 -31 -2 -34 -22 -27 -32 9 -31 7 -18 61 30
124 25 148 -39 159 -20 4 -43 10 -52 15 -11 6 -21 3 -31 -9z m93 -33 l36 -9
-24 -87 c-12 -49 -23 -93 -23 -98 0 -6 20 -15 45 -21 l45 -10 15 52 c8 29 15
56 15 61 0 4 5 24 10 44 l10 37 60 -15 c33 -9 60 -21 60 -27 0 -6 -11 -50 -24
-98 l-24 -87 73 -34 c87 -42 146 -97 163 -153 15 -53 15 -70 -3 -130 -19 -63
-60 -111 -109 -128 l-40 -14 30 -15 c61 -32 104 -101 104 -170 0 -104 -58
-211 -140 -257 -40 -22 -57 -25 -145 -25 -55 0 -114 3 -130 7 l-30 7 -23 -100
c-13 -54 -27 -99 -32 -99 -8 0 -112 22 -117 25 -1 0 9 41 22 90 14 50 25 95
25 101 0 15 -91 35 -95 20 -2 -6 -13 -51 -26 -99 -17 -67 -26 -87 -36 -82 -8
3 -33 8 -55 11 -22 4 -42 12 -44 19 -3 7 6 54 19 104 l24 91 -36 9 c-20 6 -75
20 -122 31 l-87 22 31 70 c26 60 34 69 51 64 12 -4 40 -9 62 -12 35 -5 44 -3
53 14 13 25 141 541 141 570 0 27 -30 47 -93 63 -45 11 -48 13 -42 38 18 75
26 101 33 101 4 0 59 -13 122 -29 63 -16 115 -28 116 -28 0 1 10 46 23 100 26
110 14 102 112 76z"/>
<path d="M1094 1351 l-29 -119 73 -16 c127 -28 197 -15 226 43 32 62 11 114
-61 154 -40 21 -148 57 -173 57 -3 0 -19 -54 -36 -119z m121 75 c97 -34 135
-66 135 -115 0 -49 -17 -70 -64 -81 -41 -9 -164 4 -180 20 -11 11 25 200 38
200 1 0 33 -11 71 -24z"/>
<path d="M1005 993 c-15 -65 -30 -125 -32 -134 -4 -12 12 -19 72 -32 193 -43
295 -7 295 103 0 61 -85 123 -211 155 -35 9 -71 18 -79 21 -13 3 -22 -20 -45
-113z m178 52 c17 -8 35 -15 42 -15 20 0 85 -64 87 -85 4 -57 -3 -76 -34 -96
-28 -17 -44 -19 -108 -15 -104 7 -159 16 -166 27 -6 11 35 188 48 205 10 14
86 1 131 -21z"/>
<path d="M1542 935 c0 -16 2 -22 5 -12 2 9 2 23 0 30 -3 6 -5 -1 -5 -18z"/>
<path d="M1541 884 c0 -11 3 -14 6 -6 3 7 2 16 -1 19 -3 4 -6 -2 -5 -13z"/>
</g>
</svg>
