<?xml version="1.0" standalone="no"?>
<!DOCTYPE svg PUBLIC "-//W3C//DTD SVG 20010904//EN"
 "http://www.w3.org/TR/2001/REC-SVG-20010904/DTD/svg10.dtd">
<svg version="1.0" xmlns="http://www.w3.org/2000/svg"
 width="248.000000pt" height="152.000000pt" viewBox="0 0 248.000000 152.000000"
 preserveAspectRatio="xMidYMid meet">
<metadata>
Created by potrace 1.16, written by Peter Selinger 2001-2019
</metadata>
<g transform="translate(0.000000,152.000000) scale(0.100000,-0.100000)"
fill="#000000" stroke="none">
<path d="M0 760 l0 -760 1240 0 1240 0 0 760 0 760 -1240 0 -1240 0 0 -760z
m749 595 c178 -47 293 -162 278 -276 -11 -84 -97 -122 -164 -73 -46 35 -51 73
-18 155 27 65 28 73 14 97 -21 39 -125 89 -203 97 -143 16 -246 -56 -246 -171
0 -77 58 -136 200 -202 248 -116 298 -141 343 -175 26 -21 49 -37 52 -37 3 0
5 17 5 38 0 58 27 148 66 223 138 263 563 415 867 310 32 -11 84 -34 115 -51
63 -33 99 -31 121 7 9 16 10 16 11 -4 0 -16 6 -23 19 -23 11 0 33 -11 49 -25
20 -16 36 -23 48 -18 13 5 15 3 8 -8 -13 -21 -13 -122 0 -138 9 -11 7 -13 -12
-7 -15 5 -24 3 -28 -8 -3 -8 -14 -18 -23 -21 -9 -3 -25 -23 -35 -46 -31 -70
-98 -95 -170 -65 -46 19 -66 52 -66 107 0 39 6 56 35 93 39 52 41 61 20 102
-34 69 -148 117 -280 118 -79 1 -96 -2 -141 -26 -65 -34 -110 -85 -150 -173
-32 -72 -64 -191 -64 -243 0 -27 -4 -31 -45 -41 -199 -50 -449 -193 -584 -334
l-34 -36 -66 35 c-36 19 -136 67 -221 108 -186 88 -251 140 -296 238 -38 83
-41 205 -6 283 50 110 159 181 316 206 67 10 217 2 285 -16z m675 -817 c43
-173 112 -287 216 -356 69 -47 155 -68 236 -58 77 9 199 58 262 106 43 33 52
37 52 21 0 -22 -70 -70 -147 -100 -143 -56 -369 -65 -538 -21 -138 35 -237 89
-327 179 l-79 79 -22 -46 c-52 -113 -199 -205 -365 -227 -43 -6 -51 -4 -47 7
3 8 22 20 41 27 73 26 134 115 134 194 0 20 28 55 118 145 127 129 222 205
347 276 l80 46 8 -88 c4 -48 18 -131 31 -184z m-1175 -32 c29 -16 51 -53 51
-89 0 -12 -11 -46 -25 -75 -14 -30 -25 -64 -25 -77 0 -32 67 -90 129 -112 28
-10 51 -21 51 -25 0 -12 -11 -10 -73 11 -80 28 -138 64 -191 121 -55 58 -66
84 -66 151 0 42 5 55 29 80 33 33 75 38 120 15z"/>
<path d="M1083 589 c-8 -8 22 -33 110 -93 67 -44 129 -88 138 -96 8 -8 26 -22
39 -30 13 -8 43 -30 67 -47 24 -18 47 -33 52 -33 5 0 16 -10 26 -22 15 -21 15
-20 -1 7 -29 50 -64 100 -64 91 0 -4 -15 4 -32 18 -18 15 -38 30 -44 35 -5 4
-21 14 -34 21 -14 7 -46 29 -72 49 -137 105 -165 120 -185 100z"/>
</g>
</svg>
