<svg id="svg" version="1.1" xmlns="http://www.w3.org/2000/svg" style="display: block;" viewBox="0 0 248 152"><path d="M0 0 C81.84 0 163.68 0 248 0 C248 50.16 248 100.32 248 152 C166.16 152 84.32 152 0 152 C0 101.84 0 51.68 0 0 Z " transform="translate(0,0)" style="fill: #020100;"/><path d="M0 0 C4.56607678 3.53181443 8.118545 7.46630883 10 13 C10.54451123 17.31774394 10.48367186 20.82900496 8.8125 24.875 C5.92381135 28.26173842 3.46177499 29.75118724 -0.9375 30.5 C-5.25011712 29.79589925 -6.88856971 28.03907145 -10 25 C-11.49533515 22.00932969 -11.4633069 19.2431483 -11 16 C-10.03966754 13.40952336 -8.96146107 10.92550381 -7.77734375 8.4296875 C-6.8286731 5.46449581 -6.95231717 3.92095904 -8 1 C-9.56783814 -0.59503351 -9.56783814 -0.59503351 -11.625 -1.6875 C-12.60339844 -2.28111328 -12.60339844 -2.28111328 -13.6015625 -2.88671875 C-22.18937561 -6.87291865 -33.63245219 -8.00609101 -42.77734375 -5.125 C-46.33552902 -3.11068283 -47.87061934 -1.21428672 -50 2.3125 C-51.34894631 7.28673953 -52.19051335 11.21126325 -50.14453125 16.00390625 C-43.51185339 26.43251667 -29.034125 30.99315443 -18.20166016 35.77832031 C-8.75616703 39.9557507 -0.06079039 44.48669659 8 51 C7.94199219 50.36835937 7.88398437 49.73671875 7.82421875 49.0859375 C7.11513791 35.02587737 13.30851596 23.8427071 22.1796875 13.4453125 C35.61033774 -1.04217579 56.01568329 -8.91902071 75.5234375 -10.23828125 C88.53058623 -10.4889261 100.48973527 -8.5416355 111.984375 -2.05078125 C113.98893231 -1.00576978 115.79322439 -0.4522896 118 0 C118 -0.66 118 -1.32 118 -2 C118.969375 -2.12375 119.93875 -2.2475 120.9375 -2.375 C122.4534375 -2.684375 122.4534375 -2.684375 124 -3 C124.33 -3.66 124.66 -4.32 125 -5 C132.75 -4.125 132.75 -4.125 135 -3 C138 1.5 138 1.5 138 4 C138.99 4.33 139.98 4.66 141 5 C143.43406291 8.39001501 143.17705434 11.56519432 143.0625 15.625 C142.78150949 19.97294483 142.78150949 19.97294483 144 24 C142.68 23.67 141.36 23.34 140 23 C139.91234375 23.61617187 139.8246875 24.23234375 139.734375 24.8671875 C139 27 139 27 137.328125 28.1953125 C136.64234375 28.50210938 135.9565625 28.80890625 135.25 29.125 C134.52683594 29.45628906 133.80367187 29.78757813 133.05859375 30.12890625 C131.48535886 30.79462044 129.90113952 31.43443321 128.3125 32.0625 C125.90846259 32.93029526 125.90846259 32.93029526 123.75 34.625 C119.81173861 36.59413069 116.31828149 36.83481716 112 36 C108.93234577 34.27803193 106.59678646 32.19357293 105 29 C104.44049161 23.90021862 104.42277986 20.0774776 106.875 15.5 C109 13 109 13 111 11 C111.2471821 7.86902668 111.20848949 4.92051627 110 2 C108.6918508 1.28517981 107.35343532 0.62484803 106 0 C105.37480469 -0.33 104.74960938 -0.66 104.10546875 -1 C103.15607422 -1.495 103.15607422 -1.495 102.1875 -2 C101.56230469 -2.33 100.93710938 -2.66 100.29296875 -3 C91.01040802 -7.0482718 79.67886502 -7.7070052 69.8515625 -5.1953125 C60.28244067 -0.92601199 55.69560282 7.54378481 52.0625 16.94921875 C49.39862171 24.59807517 47.66189044 31.92493658 47 40 C46.030625 40.27972656 45.06125 40.55945313 44.0625 40.84765625 C19.60651341 48.08029241 -1.08055459 59.6456166 -19 78 C-24.07277708 76.05119182 -28.95109137 73.70988342 -33.85424805 71.37670898 C-37.85857245 69.47371793 -41.87118936 67.60028705 -45.91796875 65.7890625 C-60.47603441 59.2141254 -73.50493562 52.40748574 -79.875 36.875 C-82.49928456 27.90214681 -82.29048278 17.61441528 -78.25 9.140625 C-72.36278555 -0.94122975 -62.89135497 -6.18354919 -51.81640625 -9.30859375 C-33.77828763 -12.57650265 -15.60715156 -9.6059245 0 0 Z " transform="translate(93,24)" style="fill: #F7E9A3;"/><path d="M0 0 C0.09704224 1.01815796 0.09704224 1.01815796 0.19604492 2.05688477 C2.16237068 21.99863488 4.78917599 46.24651261 21.39453125 59.98046875 C31.13555027 67.06351856 40.25951326 68.06974822 52 67 C61.1952165 65.26728254 70.49408373 61.57951563 77.15234375 54.8125 C79 53 79 53 81 53 C81 54.65 81 56.3 81 58 C72.25659929 63.40072128 64.05731997 67.46418001 54 70 C53.39720215 70.1750708 52.7944043 70.3501416 52.17333984 70.53051758 C31.17024367 75.06758273 7.51916769 69.96421854 -10.79296875 59.38671875 C-12.93386611 57.99890086 -14.97532688 56.55109078 -17 55 C-17.55945313 54.59136719 -18.11890625 54.18273437 -18.6953125 53.76171875 C-22.68526329 50.68404314 -25.23514841 47.14727738 -28 43 C-29.15511271 44.73266907 -30.29874363 46.47335556 -31.41015625 48.234375 C-35.50484577 54.46837039 -39.75790851 58.91526294 -46 63 C-46.59039062 63.38800781 -47.18078125 63.77601563 -47.7890625 64.17578125 C-55.18790964 68.39670946 -65.55928764 71 -74 71 C-72.57834963 67.39645842 -71.15047572 66.26627589 -67.6875 64.625 C-63.35346074 62.31165429 -60.61996559 60.28721641 -58 56 C-57.77269643 54.31739916 -57.58967013 52.62855197 -57.4375 50.9375 C-56.33220136 43.18988286 -50.94011047 38.74904552 -45.55761719 33.52392578 C-44.16500859 32.16143944 -42.81739063 30.75331737 -41.4765625 29.33984375 C-33.22912192 20.69510122 -12.89232161 0 0 0 Z " transform="translate(139,71)" style="fill: #E9C461;"/><path d="M0 0 C2.00455731 1.04501147 3.80884939 1.59849165 6.015625 2.05078125 C6.015625 1.39078125 6.015625 0.73078125 6.015625 0.05078125 C6.985 -0.07296875 7.954375 -0.19671875 8.953125 -0.32421875 C9.96375 -0.53046875 10.974375 -0.73671875 12.015625 -0.94921875 C12.345625 -1.60921875 12.675625 -2.26921875 13.015625 -2.94921875 C20.765625 -2.07421875 20.765625 -2.07421875 23.015625 -0.94921875 C26.015625 3.55078125 26.015625 3.55078125 26.015625 6.05078125 C27.005625 6.38078125 27.995625 6.71078125 29.015625 7.05078125 C31.44968791 10.44079626 31.19267934 13.61597557 31.078125 17.67578125 C30.79713449 22.02372608 30.79713449 22.02372608 32.015625 26.05078125 C30.695625 25.72078125 29.375625 25.39078125 28.015625 25.05078125 C27.92796875 25.66695312 27.8403125 26.283125 27.75 26.91796875 C27.015625 29.05078125 27.015625 29.05078125 25.34375 30.24609375 C24.65796875 30.55289063 23.9721875 30.8596875 23.265625 31.17578125 C22.54246094 31.50707031 21.81929688 31.83835938 21.07421875 32.1796875 C19.50098386 32.84540169 17.91676452 33.48521446 16.328125 34.11328125 C13.92408759 34.98107651 13.92408759 34.98107651 11.765625 36.67578125 C7.82736361 38.64491194 4.33390649 38.88559841 0.015625 38.05078125 C-3.05202923 36.32881318 -5.38758854 34.24435418 -6.984375 31.05078125 C-7.54388339 25.95099987 -7.56159514 22.12825885 -5.109375 17.55078125 C-2.984375 15.05078125 -2.984375 15.05078125 -0.984375 13.05078125 C-0.7371929 9.91980793 -0.77588551 6.97129752 -1.984375 4.05078125 C-3.2925242 3.33596106 -4.63093968 2.67562928 -5.984375 2.05078125 C-6.92216797 1.55578125 -6.92216797 1.55578125 -7.87890625 1.05078125 C-8.51183594 0.72078125 -9.14476562 0.39078125 -9.796875 0.05078125 C-10.73466797 -0.44421875 -10.73466797 -0.44421875 -11.69140625 -0.94921875 C-20.97396698 -4.99749055 -32.30550998 -5.65622395 -42.1328125 -3.14453125 C-51.70193433 1.12476926 -56.28877218 9.59456606 -59.921875 19 C-62.58575329 26.64885642 -64.32248456 33.97571783 -64.984375 42.05078125 C-67.02509015 42.38989119 -69.06700121 42.72180829 -71.109375 43.05078125 C-72.81480469 43.32921875 -72.81480469 43.32921875 -74.5546875 43.61328125 C-77.74575102 44.02034174 -80.77255291 44.12888027 -83.984375 44.05078125 C-83.984375 44.71078125 -83.984375 45.37078125 -83.984375 46.05078125 C-93.39439778 49.49497259 -93.39439778 49.49497259 -97.984375 49.05078125 C-97.984375 50.04078125 -97.984375 51.03078125 -97.984375 52.05078125 C-98.644375 52.05078125 -99.304375 52.05078125 -99.984375 52.05078125 C-100.314375 48.42078125 -100.644375 44.79078125 -100.984375 41.05078125 C-101.644375 41.05078125 -102.304375 41.05078125 -102.984375 41.05078125 C-101.48858661 29.56040683 -95.02662437 21.00954706 -86.984375 13.05078125 C-86.40429688 12.4371875 -85.82421875 11.82359375 -85.2265625 11.19140625 C-74.67815723 0.87951231 -60.17947909 -4.27869525 -45.984375 -6.94921875 C-44.99566406 -7.13871094 -44.00695312 -7.32820312 -42.98828125 -7.5234375 C-28.09862316 -9.6339352 -13.1628801 -7.43288509 0 0 Z " transform="translate(204.984375,21.94921875)" style="fill: #E9C25D;"/><path d="M0 0 C7.75 0.875 7.75 0.875 10 2 C13 6.5 13 6.5 13 9 C13.99 9.33 14.98 9.66 16 10 C18.43406291 13.39001501 18.17705434 16.56519432 18.0625 20.625 C17.78150949 24.97294483 17.78150949 24.97294483 19 29 C17.68 28.67 16.36 28.34 15 28 C14.91234375 28.61617187 14.8246875 29.23234375 14.734375 29.8671875 C14 32 14 32 12.328125 33.1953125 C11.64234375 33.50210938 10.9565625 33.80890625 10.25 34.125 C9.52683594 34.45628906 8.80367187 34.78757813 8.05859375 35.12890625 C6.48535886 35.79462044 4.90113952 36.43443321 3.3125 37.0625 C0.90846259 37.93029526 0.90846259 37.93029526 -1.25 39.625 C-5.18826139 41.59413069 -8.68171851 41.83481716 -13 41 C-16.06765423 39.27803193 -18.40321354 37.19357293 -20 34 C-20.55950839 28.90021862 -20.57722014 25.0774776 -18.125 20.5 C-16 18 -16 18 -14 16 C-13.10881586 10.94995653 -15.6638516 7.30727361 -18 3 C-12.555 3.99 -12.555 3.99 -7 5 C-7 4.34 -7 3.68 -7 3 C-6.030625 2.87625 -5.06125 2.7525 -4.0625 2.625 C-3.051875 2.41875 -2.04125 2.2125 -1 2 C-0.67 1.34 -0.34 0.68 0 0 Z " transform="translate(218,19)" style="fill: #F8F2D7;"/><path d="M0 0 C4.56607678 3.53181443 8.118545 7.46630883 10 13 C10.54451123 17.31774394 10.48367186 20.82900496 8.8125 24.875 C5.92381135 28.26173842 3.46177499 29.75118724 -0.9375 30.5 C-5.25011712 29.79589925 -6.88856971 28.03907145 -10 25 C-11.49533515 22.00932969 -11.4633069 19.2431483 -11 16 C-10.03966754 13.40952336 -8.96146107 10.92550381 -7.77734375 8.4296875 C-6.8286731 5.46449581 -6.95231717 3.92095904 -8 1 C-9.56783814 -0.59503351 -9.56783814 -0.59503351 -11.625 -1.6875 C-12.60339844 -2.28111328 -12.60339844 -2.28111328 -13.6015625 -2.88671875 C-22.18937561 -6.87291865 -33.63245219 -8.00609101 -42.77734375 -5.125 C-46.33552902 -3.11068283 -47.87061934 -1.21428672 -50 2.3125 C-51.34894631 7.28673953 -52.19051335 11.21126325 -50.14453125 16.00390625 C-44.54964029 24.80079634 -33.2884181 29.14465404 -24 33 C-28.2882419 34.42941397 -31.10209861 32.86588067 -35 31 C-42.29210699 26.99243979 -49.16275883 22.67448234 -53 15 C-53.51207216 9.39239009 -53.81070632 4.56550187 -51.1875 -0.5 C-50.465625 -1.325 -49.74375 -2.15 -49 -3 C-48.01 -4.32 -47.02 -5.64 -46 -7 C-52.435 -6.505 -52.435 -6.505 -59 -6 C-42.67643628 -16.88237581 -15.2353381 -9.37707992 0 0 Z " transform="translate(93,24)" style="fill: #E7C462;"/><path d="M0 0 C0.33 0.66 0.66 1.32 1 2 C2.66682817 2.46671189 4.33515307 2.92895234 6.01171875 3.359375 C9.30590567 4.42076332 12.05613702 6.19763491 15 8 C15 8.66 15 9.32 15 10 C15.680625 10.20625 16.36125 10.4125 17.0625 10.625 C20.35398816 12.16569659 22.53243486 14.0872027 25.15625 16.5625 C26.9658159 18.15296714 26.9658159 18.15296714 29.47265625 18.73828125 C33.15530119 20.57675778 34.2556009 23.61925075 35.9375 27.1875 C38.76570833 32.8365585 41.54626117 37.44503984 46 42 C47.175625 43.2065625 47.175625 43.2065625 48.375 44.4375 C48.91125 44.953125 49.4475 45.46875 50 46 C48.515 46.495 48.515 46.495 47 47 C44.77734375 45.375 44.77734375 45.375 42 43 C39.55833978 41.27696715 37.05878511 39.64262031 34.5625 38 C33.91990234 37.57460937 33.27730469 37.14921875 32.61523438 36.7109375 C31.66293945 36.08058594 31.66293945 36.08058594 30.69140625 35.4375 C30.07410645 35.02757812 29.45680664 34.61765625 28.82080078 34.1953125 C27.6191532 33.40645938 26.4092213 32.6300657 25.19091797 31.8671875 C23.76138694 30.96088077 22.37546891 29.98642593 21 29 C21 28.34 21 27.68 21 27 C19.68 26.67 18.36 26.34 17 26 C17 25.34 17 24.68 17 24 C16.29875 23.9175 15.5975 23.835 14.875 23.75 C10.10726004 22.50624175 6.86593262 19.90922926 3.5 16.375 C0.75114028 13.76358327 -1.36427901 12.93006816 -5 12 C-5 11.34 -5 10.68 -5 10 C-5.721875 10.45375 -6.44375 10.9075 -7.1875 11.375 C-10 13 -10 13 -12.5 13.875 C-15.71325345 15.32096405 -17.6320954 17.42913215 -20 20 C-20.66 19.67 -21.32 19.34 -22 19 C-19.61669395 16.52925375 -17.21632053 14.07577889 -14.8125 11.625 C-14.13896484 10.92632812 -13.46542969 10.22765625 -12.77148438 9.5078125 C-12.11083984 8.8375 -11.45019531 8.1671875 -10.76953125 7.4765625 C-9.86618042 6.549646 -9.86618042 6.549646 -8.94458008 5.60400391 C-6.74824486 3.79233756 -4.64677208 3.00548673 -2 2 C-1.34 1.34 -0.68 0.68 0 0 Z " transform="translate(112,89)" style="fill: #AF7521;"/><path d="M0 0 C0.06469482 0.67877197 0.12938965 1.35754395 0.19604492 2.05688477 C1.826524 18.59260172 3.92837985 33.29503801 12.08203125 48.046875 C13 50 13 50 13 53 C9.57228865 49.0826156 5 43.47848189 5 38 C4.28199219 37.9175 3.56398437 37.835 2.82421875 37.75 C-0.63184946 36.83220595 -2.46959244 35.30261457 -5.1875 33 C-8.40595972 30.21368125 -8.40595972 30.21368125 -12 28 C-12 27.34 -12 26.68 -12 26 C-12.94875 25.71125 -13.8975 25.4225 -14.875 25.125 C-18 24 -18 24 -20 22 C-22.31648799 20.96157435 -24.64903024 19.9578025 -27 19 C-27.99 19.99 -28.98 20.98 -30 22 C-30.66 21.67 -31.32 21.34 -32 21 C-25.52960362 14.3971686 -9.70764738 0 0 0 Z " transform="translate(139,71)" style="fill: #EFDC7C;"/><path d="M0 0 C2.87029869 1.79393668 4.49131638 2.98263276 6 6 C6.41810195 10.84998262 6.34516349 13.80342632 3.9375 18.0625 C2.36896834 20.95607285 1.986819 22.19112457 1.75 25.625 C3.55405923 30.49595992 6.56320021 32.48860389 11 35 C13.64824966 36.19193639 16.22755658 37.10885747 19 38 C19 38.66 19 39.32 19 40 C13.62559249 39.48455171 9.74434434 38.1863833 4.875 35.6875 C3.69679688 35.09324219 2.51859375 34.49898437 1.3046875 33.88671875 C-5.80008619 29.83044725 -10.45834546 24.62119008 -14.375 17.5 C-15.73881907 12.0447237 -15.78713564 8.443082 -13.125 3.5625 C-9.46092552 -0.85594275 -5.46426149 -0.70780589 0 0 Z " transform="translate(24,100)" style="fill: #E5D897;"/><path d="M0 0 C7.75 0.875 7.75 0.875 10 2 C13 6.5 13 6.5 13 9 C13.99 9.33 14.98 9.66 16 10 C18.43406291 13.39001501 18.17705434 16.56519432 18.0625 20.625 C17.78150949 24.97294483 17.78150949 24.97294483 19 29 C17.68 28.67 16.36 28.34 15 28 C14.91234375 28.61617187 14.8246875 29.23234375 14.734375 29.8671875 C14 32 14 32 12.328125 33.1953125 C11.64234375 33.50210938 10.9565625 33.80890625 10.25 34.125 C9.52683594 34.45628906 8.80367187 34.78757813 8.05859375 35.12890625 C6.48535886 35.79462044 4.90113952 36.43443321 3.3125 37.0625 C0.90846259 37.93029526 0.90846259 37.93029526 -1.25 39.625 C-5.18826139 41.59413069 -8.68171851 41.83481716 -13 41 C-16.06765423 39.27803193 -18.40321354 37.19357293 -20 34 C-20.12082534 32.33654418 -20.1753794 30.66779409 -20.1875 29 C-20.20167969 28.113125 -20.21585938 27.22625 -20.23046875 26.3125 C-20 24 -20 24 -18 22 C-18.04640625 22.73605469 -18.0928125 23.47210938 -18.140625 24.23046875 C-18.37145544 30.35722672 -18.37145544 30.35722672 -16.5625 36.125 C-12.87239457 38.82507715 -9.5223559 39.26697271 -5 39 C-1.43999797 37.68434708 -0.31490547 36.48360483 1.75 33.3125 C3.21326005 29.43486087 3.6448012 26.12030604 4 22 C5.32 22 6.64 22 8 22 C7.67 21.67 7.34 21.34 7 21 C6.95907063 18.66702567 6.95758277 16.33294775 7 14 C5.02 13.34 3.04 12.68 1 12 C1 10.68 1 9.36 1 8 C0.34 8 -0.32 8 -1 8 C-1 8.99 -1 9.98 -1 11 C-2.32 10.67 -3.64 10.34 -5 10 C-5 9.34 -5 8.68 -5 8 C-7.475 7.01 -7.475 7.01 -10 6 C-9.01 5.67 -8.02 5.34 -7 5 C-7 4.34 -7 3.68 -7 3 C-6.030625 2.87625 -5.06125 2.7525 -4.0625 2.625 C-3.051875 2.41875 -2.04125 2.2125 -1 2 C-0.67 1.34 -0.34 0.68 0 0 Z " transform="translate(218,19)" style="fill: #5B5858;"/><path d="M0 0 C5.2789879 5.2600668 8.22048743 9.88774703 8.4375 17.4375 C8.27307542 21.70596221 7.33038464 25.31776915 6.0625 29.375 C6.3925 30.035 6.7225 30.695 7.0625 31.375 C6.010625 31.9628125 6.010625 31.9628125 4.9375 32.5625 C1.93695008 34.35778824 1.93695008 34.35778824 -0.9375 36.9375 C-5.99892434 41.04990728 -10.55195381 41.96302928 -16.9375 42.375 C-17.9275 41.715 -18.9175 41.055 -19.9375 40.375 C-15.33969512 36.89558009 -10.83710617 35.18580844 -5.328125 33.5 C-2.79298766 32.57058238 -2.79298766 32.57058238 -1.609375 30.25 C-1.27679688 29.321875 -1.27679688 29.321875 -0.9375 28.375 C0.0525 28.375 1.0425 28.375 2.0625 28.375 C1.89878906 27.85421875 1.73507813 27.3334375 1.56640625 26.796875 C0.92191341 23.6993125 0.96838411 20.78658906 1 17.625 C1.00902344 16.45453125 1.01804688 15.2840625 1.02734375 14.078125 C1.03894531 13.18609375 1.05054688 12.2940625 1.0625 11.375 C0.43859375 11.08496094 -0.1853125 10.79492188 -0.828125 10.49609375 C-3.35970535 9.15060568 -4.45948456 7.81372547 -5.9375 5.375 C-5.9375 4.385 -5.9375 3.395 -5.9375 2.375 C-9.2375 1.715 -12.5375 1.055 -15.9375 0.375 C-16.2675 1.365 -16.5975 2.355 -16.9375 3.375 C-18.9175 3.375 -20.8975 3.375 -22.9375 3.375 C-22.9375 4.035 -22.9375 4.695 -22.9375 5.375 C-27.15662747 4.8955537 -29.73413178 4.20874881 -32.9375 1.375 C-22.57318443 -6.02404817 -10.58692581 -8.83113023 0 0 Z " transform="translate(233.9375,18.625)" style="fill: #2A2827;"/><path d="M0 0 C2.69184338 1.26536287 5.03808145 2.70058577 7.48828125 4.3828125 C8.27847656 4.92164063 9.06867188 5.46046875 9.8828125 6.015625 C10.47449219 6.42554688 11.06617188 6.83546875 11.67578125 7.2578125 C10.89706443 10.24052042 10.1006649 13.21821745 9.30078125 16.1953125 C8.96820313 17.47051758 8.96820313 17.47051758 8.62890625 18.77148438 C8.40976563 19.58037109 8.190625 20.38925781 7.96484375 21.22265625 C7.76584473 21.971521 7.5668457 22.72038574 7.36181641 23.49194336 C6.67578125 25.2578125 6.67578125 25.2578125 4.67578125 26.2578125 C4.34578125 25.5978125 4.01578125 24.9378125 3.67578125 24.2578125 C2.68578125 23.9278125 1.69578125 23.5978125 0.67578125 23.2578125 C0.67578125 22.5978125 0.67578125 21.9378125 0.67578125 21.2578125 C-0.97421875 20.5978125 -2.62421875 19.9378125 -4.32421875 19.2578125 C-4.32421875 18.5978125 -4.32421875 17.9378125 -4.32421875 17.2578125 C-5.31421875 16.9278125 -6.30421875 16.5978125 -7.32421875 16.2578125 C-7.65421875 15.5978125 -7.98421875 14.9378125 -8.32421875 14.2578125 C-10.6802111 13.79029462 -10.6802111 13.79029462 -13.38671875 13.6328125 C-14.30582031 13.55804688 -15.22492188 13.48328125 -16.171875 13.40625 C-16.88214844 13.35726562 -17.59242187 13.30828125 -18.32421875 13.2578125 C-6.3781846 -2.03673122 -6.3781846 -2.03673122 0 0 Z " transform="translate(133.32421875,27.7421875)" style="fill: #B07622;"/><path d="M0 0 C-3 1 -3 1 -5 1 C-5.33 1.66 -5.66 2.32 -6 3 C-6.39316406 2.54882812 -6.78632813 2.09765625 -7.19140625 1.6328125 C-9.32356115 -0.29211352 -11.25979113 -1.10223601 -13.9375 -2.125 C-14.79214844 -2.45757813 -15.64679688 -2.79015625 -16.52734375 -3.1328125 C-25.45996067 -6.26557862 -37.89698287 -7.01619472 -46.6875 -3.0625 C-50.93340096 -0.50763891 -53.72132424 2.87394596 -56.52734375 6.9140625 C-57.88292665 8.83417197 -59.28961791 10.39683589 -61 12 C-62.5 10.625 -62.5 10.625 -64 9 C-64 8.34 -64 7.68 -64 7 C-64.94875 6.731875 -65.8975 6.46375 -66.875 6.1875 C-70 5 -70 5 -72 2 C-54.55961198 -15.44038802 -19.56251473 -11.47416729 0 0 Z " transform="translate(207,23)" style="fill: #EDD76F;"/><path d="M0 0 C0.66 0.33 1.32 0.66 2 1 C1.34 1.66 0.68 2.32 0 3 C1.670625 3.4021875 1.670625 3.4021875 3.375 3.8125 C7 5 7 5 9 8 C11.04646473 9.26115209 11.04646473 9.26115209 13.375 10.375 C16.44053814 11.99075338 17.93696465 12.92027882 20.125 15.6875 C22.27455987 18.33862384 23.63968181 18.55233065 26.87109375 19.28515625 C33.86986745 21.6352032 40.06563413 26.61705541 45 32 C45.763125 32.556875 46.52625 33.11375 47.3125 33.6875 C47.869375 34.120625 48.42625 34.55375 49 35 C49 35.66 49 36.32 49 37 C49.5775 37.0825 50.155 37.165 50.75 37.25 C53.6159304 38.20531013 54.9990764 39.78469173 57 42 C55.515 42.495 55.515 42.495 54 43 C51.77734375 41.375 51.77734375 41.375 49 39 C46.55833978 37.27696715 44.05878511 35.64262031 41.5625 34 C40.91990234 33.57460937 40.27730469 33.14921875 39.61523438 32.7109375 C38.66293945 32.08058594 38.66293945 32.08058594 37.69140625 31.4375 C36.76545654 30.82261719 36.76545654 30.82261719 35.82080078 30.1953125 C34.6191532 29.40645938 33.4092213 28.6300657 32.19091797 27.8671875 C30.76138694 26.96088077 29.37546891 25.98642593 28 25 C28 24.34 28 23.68 28 23 C26.68 22.67 25.36 22.34 24 22 C24 21.34 24 20.68 24 20 C23.29875 19.9175 22.5975 19.835 21.875 19.75 C17.10726004 18.50624175 13.86593262 15.90922926 10.5 12.375 C7.75114028 9.76358327 5.63572099 8.93006816 2 8 C2 7.34 2 6.68 2 6 C1.278125 6.45375 0.55625 6.9075 -0.1875 7.375 C-3 9 -3 9 -5.5 9.875 C-8.71325345 11.32096405 -10.6320954 13.42913215 -13 16 C-13.66 15.67 -14.32 15.34 -15 15 C-10.05 10.05 -5.1 5.1 0 0 Z " transform="translate(105,93)" style="fill: #CC9A3C;"/><path d="M0 0 C0.33 0.66 0.66 1.32 1 2 C2.051875 2.144375 3.10375 2.28875 4.1875 2.4375 C8 3 8 3 14 6 C14 11.28 14 16.56 14 22 C12.68 21.67 11.36 21.34 10 21 C9.67 21.99 9.34 22.98 9 24 C8.34 24 7.68 24 7 24 C7 24.66 7 25.32 7 26 C6 27 5 28 4 29 C3.360625 30.010625 2.72125 31.02125 2.0625 32.0625 C-0.02030195 35.02891489 -0.76728863 35.72811356 -4 37 C-7.79376145 37.65528607 -11.4527415 37.86351149 -14.8828125 35.94921875 C-17.04184522 34.18131514 -18.74512701 32.50974598 -20 30 C-20.12082534 28.33654418 -20.1753794 26.66779409 -20.1875 25 C-20.20167969 24.113125 -20.21585938 23.22625 -20.23046875 22.3125 C-20 20 -20 20 -18 18 C-18.04640625 18.73605469 -18.0928125 19.47210938 -18.140625 20.23046875 C-18.37145544 26.35722672 -18.37145544 26.35722672 -16.5625 32.125 C-12.87239457 34.82507715 -9.5223559 35.26697271 -5 35 C-1.43999797 33.68434708 -0.31490547 32.48360483 1.75 29.3125 C3.21326005 25.43486087 3.6448012 22.12030604 4 18 C5.32 18 6.64 18 8 18 C7.67 17.67 7.34 17.34 7 17 C6.95907063 14.66702567 6.95758277 12.33294775 7 10 C5.02 9.34 3.04 8.68 1 8 C1 6.68 1 5.36 1 4 C0.34 4 -0.32 4 -1 4 C-1 4.99 -1 5.98 -1 7 C-2.32 6.67 -3.64 6.34 -5 6 C-3.35 4.02 -1.7 2.04 0 0 Z " transform="translate(218,23)" style="fill: #A0957C;"/><path d="M0 0 C0.87229248 0.00346436 1.74458496 0.00692871 2.64331055 0.01049805 C12.67756477 0.17735152 22.32270925 1.78635463 31.375 6.3125 C30.385 7.3025 29.395 8.2925 28.375 9.3125 C27.77171875 9.03535156 27.1684375 8.75820313 26.546875 8.47265625 C25.74765625 8.11042969 24.9484375 7.74820312 24.125 7.375 C23.33609375 7.01535156 22.5471875 6.65570312 21.734375 6.28515625 C14.09886219 3.13740345 3.50709059 2.70962017 -4.4140625 5.18359375 C-7.9591708 7.20842153 -9.49815811 9.10241813 -11.625 12.625 C-12.97394631 17.59923953 -13.81551335 21.52376325 -11.76953125 26.31640625 C-6.17464029 35.11329634 5.0865819 39.45715404 14.375 43.3125 C10.0867581 44.74191397 7.27290139 43.17838067 3.375 41.3125 C-3.91710699 37.30493979 -10.78775883 32.98698234 -14.625 25.3125 C-15.13707216 19.70489009 -15.43570632 14.87800187 -12.8125 9.8125 C-12.090625 8.9875 -11.36875 8.1625 -10.625 7.3125 C-9.635 5.9925 -8.645 4.6725 -7.625 3.3125 C-14.06 3.8075 -14.06 3.8075 -20.625 4.3125 C-14.34267243 0.12428162 -7.33062122 -0.04757838 0 0 Z " transform="translate(54.625,13.6875)" style="fill: #BCA047;"/><path d="M0 0 C3.0625 1.875 3.0625 1.875 5 4 C5 4.66 5 5.32 5 6 C2.0280615 4.87548273 -0.33440687 3.77706209 -3 2 C-5.33199388 1.92094936 -7.66832622 1.91201231 -10 2 C-6.33371118 6.02109096 -2.42051222 8.80689375 2.20703125 11.66796875 C2.79871094 12.10753906 3.39039062 12.54710938 4 13 C4 13.66 4 14.32 4 15 C-0.21541378 14.47027544 -2.4562226 13.15308967 -5.6875 10.4375 C-8.48783484 7.78758923 -8.48783484 7.78758923 -12 7 C-12.61823575 12.93506324 -12.15511224 17.05663791 -8.7109375 22.00390625 C-5.50840868 25.74018988 -1.79913411 28.88785528 2 32 C2.33 31.01 2.66 30.02 3 29 C3.4846875 29.39832031 3.969375 29.79664063 4.46875 30.20703125 C9.15201331 33.90861052 13.3175548 36.17349976 19 38 C19 38.66 19 39.32 19 40 C13.62559249 39.48455171 9.74434434 38.1863833 4.875 35.6875 C3.69679688 35.09324219 2.51859375 34.49898437 1.3046875 33.88671875 C-5.80008619 29.83044725 -10.45834546 24.62119008 -14.375 17.5 C-15.73881907 12.0447237 -15.78713564 8.443082 -13.125 3.5625 C-9.46037683 -0.85660441 -5.46454746 -0.70662252 0 0 Z " transform="translate(24,100)" style="fill: #B09143;"/><path d="M0 0 C1.64846769 0.44876616 3.29373455 0.90930488 4.9375 1.375 C5.85402344 1.63023438 6.77054688 1.88546875 7.71484375 2.1484375 C10 3 10 3 11 5 C10.484375 5.4125 9.96875 5.825 9.4375 6.25 C8.7259375 7.11625 8.7259375 7.11625 8 8 C8.30271961 9.34061543 8.63837971 10.67405895 9 12 C8.375 14.1875 8.375 14.1875 7 16 C4.375 16.75 4.375 16.75 2 17 C1.66602213 19.87413125 1.66602213 19.87413125 2 23 C3.88347363 24.72520185 3.88347363 24.72520185 6 26 C6.33 26.99 6.66 27.98 7 29 C7.66 29.33 8.32 29.66 9 30 C9 30.99 9 31.98 9 33 C10.98 33.66 12.96 34.32 15 35 C13 37 13 37 11.01171875 37.1875 C6.74125189 36.84299175 4.42128634 36.30332617 0.875 33.75 C-2.04976328 29.60068185 -1.1841172 24.84468393 -0.78515625 20.0234375 C0.11770429 16.54675064 1.35796367 15.34264057 4 13 C5.08100263 8.13548818 2.29818515 4.13468132 0 0 Z " transform="translate(200,22)" style="fill: #F8ECA5;"/><path d="M0 0 C0.66 0.33 1.32 0.66 2 1 C1.10796875 1.56847656 0.2159375 2.13695312 -0.703125 2.72265625 C-9.48447465 8.36158184 -9.48447465 8.36158184 -15 17 C-15.3494165 17.63470215 -15.69883301 18.2694043 -16.05883789 18.92333984 C-19.1732191 25.79517554 -17.99981659 37.12164169 -16.16015625 44.2578125 C-9.21752244 59.17161846 6.18728461 64.68013549 20.17578125 71.15820312 C21.16964844 71.62548828 22.16351563 72.09277344 23.1875 72.57421875 C24.08855469 72.99276123 24.98960938 73.41130371 25.91796875 73.8425293 C28 75 28 75 29 77 C12.92403931 71.99285116 -7.01308561 64.46094152 -15.88671875 49.2265625 C-20.50611119 39.98777761 -21.70632127 30.25909557 -19.30859375 20.05859375 C-15.95897792 10.87868425 -10.43627748 5.8773042 -2.171875 0.96875 C-1.45515625 0.6490625 -0.7384375 0.329375 0 0 Z " transform="translate(32,18)" style="fill: #B09656;"/><path d="M0 0 C3.37637127 3.87525462 3.37432627 6.48714533 3.2421875 11.45703125 C2.92074839 14.83214196 2.00902303 17.77112632 1 21 C1.33 21.66 1.66 22.32 2 23 C1.29875 23.391875 0.5975 23.78375 -0.125 24.1875 C-3.12554992 25.98278824 -3.12554992 25.98278824 -6 28.5625 C-11.06142434 32.67490728 -15.61445381 33.58802928 -22 34 C-22.99 33.34 -23.98 32.68 -25 32 C-20.40219512 28.52058009 -15.89960617 26.81080844 -10.390625 25.125 C-7.85548766 24.19558238 -7.85548766 24.19558238 -6.671875 21.875 C-6.45015625 21.25625 -6.2284375 20.6375 -6 20 C-4.68 20.33 -3.36 20.66 -2 21 C-0.99611667 15.47864169 -0.94992136 10.18204214 -1.0625 4.57421875 C-1 2 -1 2 0 0 Z " transform="translate(239,27)" style="fill: #242222;"/><path d="M0 0 C0 1.66666667 0 3.33333333 0 5 C1.98 5.99 3.96 6.98 6 8 C6 8.66 6 9.32 6 10 C6.99 10.33 7.98 10.66 9 11 C10.30225077 14.90675232 9.06256674 17.19531584 7.6875 20.875 C5.20984268 27.83067988 3.83062838 34.64831901 3 42 C1.68 41.67 0.36 41.34 -1 41 C-0.34 41 0.32 41 1 41 C1.09796875 40.06800781 1.1959375 39.13601562 1.296875 38.17578125 C2.33126118 29.35674738 4.07566379 21.41811345 7 13 C5.30955883 11.76676 3.59674189 10.56414973 1.875 9.375 C0.92367187 8.70210937 -0.02765625 8.02921875 -1.0078125 7.3359375 C-3.93357507 5.69646154 -3.93357507 5.69646154 -7.0546875 6.52734375 C-16.83394786 11.41697393 -26.15120791 21.6828191 -30 32 C-30.53323378 34.36594485 -30.79785663 36.5742796 -31 39 C-32.485 39.495 -32.485 39.495 -34 40 C-33.1440949 26.87612184 -24.30727958 17.8289265 -15.125 9.25 C-10.55799129 5.35787314 -5.34053932 2.68008683 0 0 Z " transform="translate(137,22)" style="fill: #E1C980;"/><path d="M0 0 C0 1.65 0 3.3 0 5 C-8.74340071 10.40072128 -16.94268003 14.46418001 -27 17 C-27.59119629 17.17724609 -28.18239258 17.35449219 -28.79150391 17.53710938 C-31.59390012 18.12447873 -34.21487092 18.11169181 -37.078125 18.09765625 C-38.23828125 18.09443359 -39.3984375 18.09121094 -40.59375 18.08789062 C-41.8003125 18.07951172 -43.006875 18.07113281 -44.25 18.0625 C-45.47203125 18.05798828 -46.6940625 18.05347656 -47.953125 18.04882812 C-50.96879946 18.03704815 -53.98437498 18.02059853 -57 18 C-55.68 17.67 -54.36 17.34 -53 17 C-53 16.01 -53 15.02 -53 14 C-52.34104736 14.02094727 -51.68209473 14.04189453 -51.00317383 14.06347656 C-34.11749715 14.52936968 -20.14468976 14.41966097 -6 4 C-4.93458984 2.9171875 -4.93458984 2.9171875 -3.84765625 1.8125 C-2 0 -2 0 0 0 Z " transform="translate(220,124)" style="fill: #B08C44;"/><path d="M0 0 C-3 1 -3 1 -5 1 C-5.33 1.66 -5.66 2.32 -6 3 C-6.58974609 2.32324219 -6.58974609 2.32324219 -7.19140625 1.6328125 C-9.32356115 -0.29211352 -11.25979113 -1.10223601 -13.9375 -2.125 C-14.79214844 -2.45757813 -15.64679688 -2.79015625 -16.52734375 -3.1328125 C-24.93813626 -6.08256912 -35.74423296 -6.66691783 -44.30078125 -3.953125 C-46.66695819 -2.76127291 -48.82935319 -1.51440475 -51 0 C-51.99 0.66 -52.98 1.32 -54 2 C-52.54744301 -1.82946843 -50.57104439 -3.12050295 -47 -5 C-50.3 -5 -53.6 -5 -57 -5 C-41.62332119 -15.25111921 -14.69715413 -8.62044617 0 0 Z " transform="translate(207,23)" style="fill: #B8994C;"/><path d="M0 0 C5.75 2.75 5.75 2.75 8 5 C9.64991582 5.70710678 11.31562256 6.37943989 13 7 C13 7.99 13 8.98 13 10 C13.8971875 10.1546875 13.8971875 10.1546875 14.8125 10.3125 C17.28243264 11.08876455 18.32251235 12.07088921 20 14 C19.34 15.98 18.68 17.96 18 20 C15.5 18.625 15.5 18.625 13 17 C13 16.34 13 15.68 13 15 C11.35 14.34 9.7 13.68 8 13 C8 12.34 8 11.68 8 11 C7.01 10.67 6.02 10.34 5 10 C4.67 9.34 4.34 8.68 4 8 C1.64400765 7.53248212 1.64400765 7.53248212 -1.0625 7.375 C-1.98160156 7.30023438 -2.90070313 7.22546875 -3.84765625 7.1484375 C-4.55792969 7.09945312 -5.26820312 7.05046875 -6 7 C-4.02 4.69 -2.04 2.38 0 0 Z " transform="translate(121,34)" style="fill: #C18C34;"/><path d="M0 0 C0 5.28 0 10.56 0 16 C-6.0915493 17.21830986 -6.0915493 17.21830986 -10 15 C-11.76394209 12.39608549 -12 11.19219704 -12 8 C-11.34 8 -10.68 8 -10 8 C-9.9175 7.38640625 -9.835 6.7728125 -9.75 6.140625 C-9 4 -9 4 -7.1875 2.734375 C-6.465625 2.40953125 -5.74375 2.0846875 -5 1.75 C-4.278125 1.41484375 -3.55625 1.0796875 -2.8125 0.734375 C-1 0 -1 0 0 0 Z " transform="translate(139,71)" style="fill: #F9EEA3;"/><path d="M0 0 C3.54149204 1.86394318 5.74074467 3.10775626 7 7 C7.4375 9.375 7.4375 9.375 7 12 C5.76057199 13.40251065 4.51816505 14.80280911 3.24609375 16.17578125 C0.86406483 19.66295212 0.54481085 23.88545836 0 28 C-0.33 28 -0.66 28 -1 28 C-1.144375 26.865625 -1.28875 25.73125 -1.4375 24.5625 C-1.61171478 21.19222799 -1.61171478 21.19222799 -3 20 C-3.61227636 12.6409091 -3.09440988 6.70455473 0 0 Z " transform="translate(198,23)" style="fill: #43382E;"/><path d="M0 0 C0.33 0.66 0.66 1.32 1 2 C2.546875 1.87625 2.546875 1.87625 4.125 1.75 C9.93046652 2.12454623 13.12654797 4.84022679 16.875 9.0625 C20.69549663 14.34377475 19 22.58254169 19 29 C18.34 29.33 17.68 29.66 17 30 C17 25.05 17 20.1 17 15 C15.68 14.34 14.36 13.68 13 13 C10.64872567 10.39680342 10 9.57870074 10 6 C6.7 5.34 3.4 4.68 0 4 C-0.33 4.99 -0.66 5.98 -1 7 C-2.98 7 -4.96 7 -7 7 C-7 7.66 -7 8.32 -7 9 C-9.97 8.505 -9.97 8.505 -13 8 C-12.67 7.34 -12.34 6.68 -12 6 C-11.34 6 -10.68 6 -10 6 C-10 5.34 -10 4.68 -10 4 C-9.04287109 3.81824219 -9.04287109 3.81824219 -8.06640625 3.6328125 C-7.24011719 3.46523438 -6.41382813 3.29765625 -5.5625 3.125 C-4.73878906 2.96257813 -3.91507813 2.80015625 -3.06640625 2.6328125 C-2.38449219 2.42398437 -1.70257813 2.21515625 -1 2 C-0.67 1.34 -0.34 0.68 0 0 Z " transform="translate(218,15)" style="fill: #393637;"/><path d="M0 0 C0.33 3.63 0.66 7.26 1 11 C1.66 11 2.32 11 3 11 C3 10.01 3 9.02 3 8 C12.41002278 4.55580866 12.41002278 4.55580866 17 5 C17 4.34 17 3.68 17 3 C18.58086048 2.63495397 20.16483907 2.28339494 21.75 1.9375 C23.07257813 1.64166016 23.07257813 1.64166016 24.421875 1.33984375 C27.02266321 0.99701258 28.51848845 1.29659756 31 2 C30.410979 2.21615967 29.82195801 2.43231934 29.21508789 2.6550293 C26.49470077 3.65828696 23.77864509 4.67281669 21.0625 5.6875 C20.13630859 6.02716797 19.21011719 6.36683594 18.25585938 6.71679688 C12.79402389 8.76738072 7.8291017 11.06616531 2.87280273 14.15551758 C1 15 1 15 -2 14 C-2.19393875 11.85473901 -2.37998676 9.70876323 -2.5625 7.5625 C-2.71912109 5.77005859 -2.71912109 5.77005859 -2.87890625 3.94140625 C-2.91886719 2.97074219 -2.95882812 2.00007813 -3 1 C-2 0 -2 0 0 0 Z " transform="translate(104,63)" style="fill: #EBDA94;"/><path d="M0 0 C0.33 0.66 0.66 1.32 1 2 C2.66682817 2.46671189 4.33515307 2.92895234 6.01171875 3.359375 C9.30590567 4.42076332 12.05613702 6.19763491 15 8 C15 8.66 15 9.32 15 10 C15.680625 10.20625 16.36125 10.4125 17.0625 10.625 C20.39157306 12.18328952 22.5909368 14.17609958 25.29296875 16.625 C27.04322832 18.18969371 27.04322832 18.18969371 29.8125 19 C32 20 32 20 33.3125 23.125 C33.6528125 24.548125 33.6528125 24.548125 34 26 C33.484375 25.401875 32.96875 24.80375 32.4375 24.1875 C30.03725464 22.03343365 27.92251495 21.02540178 24.94921875 19.8515625 C21.43445466 18.31605434 18.01668518 16.37417042 15 14 C15 13.34 15 12.68 15 12 C14.030625 11.835 13.06125 11.67 12.0625 11.5 C6.62351463 10.00650811 2.93866467 5.84042133 -1 2 C-0.67 1.34 -0.34 0.68 0 0 Z " transform="translate(112,89)" style="fill: #CEA147;"/><path d="M0 0 C0.33 0.66 0.66 1.32 1 2 C0.401875 2.5775 -0.19625 3.155 -0.8125 3.75 C-3.03357815 7.04988753 -3.53864766 8.98676751 -4.3125 12.8125 C-5.97721353 20.27152028 -9.70501205 24.80334137 -16 29 C-10.26719237 28.58306854 -6.09792397 27.36884593 -0.98046875 24.7421875 C1 24 1 24 4 25 C-1.24829804 28.06150719 -6.39164377 29.79070783 -12.25 31.25 C-12.94738281 31.42499023 -13.64476563 31.59998047 -14.36328125 31.78027344 C-17.70378235 32.57999841 -20.54191975 33 -24 33 C-22.57834963 29.39645842 -21.15047572 28.26627589 -17.6875 26.625 C-13.35346074 24.31165429 -10.61996559 22.28721641 -8 18 C-7.43297116 15.24407306 -7.0524835 12.48990518 -6.66796875 9.703125 C-5.62500327 5.48246938 -3.13816465 2.89145359 0 0 Z " transform="translate(89,109)" style="fill: #B0944F;"/><path d="M0 0 C0.99 0.33 1.98 0.66 3 1 C2.49396008 3.16874252 2.00016187 4.99967627 1 7 C3.64 7 6.28 7 9 7 C9 7.66 9 8.32 9 9 C6.46270379 10.01250775 3.92110512 11.01009573 1.375 12 C0.66214844 12.28617188 -0.05070312 12.57234375 -0.78515625 12.8671875 C-5.02007372 14.49899056 -8.38276475 15.34956986 -13 15 C-12.29875 14.484375 -11.5975 13.96875 -10.875 13.4375 C-6.32162054 9.57702611 -2.52078918 5.44777188 0 0 Z " transform="translate(84,124)" style="fill: #F7E8A0;"/><path d="M0 0 C0.3125 3.1875 0.3125 3.1875 0 7 C-2.5 9.9375 -2.5 9.9375 -5 12 C-5.33 11.34 -5.66 10.68 -6 10 C-7.64363134 9.27840576 -9.31050386 8.60648579 -11 8 C-11 5.36 -11 2.72 -11 0 C-7.01803543 -1.05404945 -4.01804691 -0.84098656 0 0 Z " transform="translate(223,33)" style="fill: #FDFBF7;"/><path d="M0 0 C7.81558225 0.55825588 11.76087863 5.76087863 17 11 C17.66 11.33 18.32 11.66 19 12 C19 12.66 19 13.32 19 14 C19.5775 14.0825 20.155 14.165 20.75 14.25 C23.6159304 15.20531013 24.9990764 16.78469173 27 19 C26.01 19.33 25.02 19.66 24 20 C22.28201383 18.73347757 20.62632032 17.38225822 19 16 C17.80246297 15.19269428 16.59186958 14.40452738 15.37109375 13.6328125 C14.72849609 13.22160156 14.08589844 12.81039062 13.42382812 12.38671875 C12.10034165 11.54603806 10.77218079 10.71267119 9.43945312 9.88671875 C5.08924504 7.07985082 2.57911642 4.50196912 0 0 Z " transform="translate(135,116)" style="fill: #C18D32;"/><path d="M0 0 C0.515625 0.680625 1.03125 1.36125 1.5625 2.0625 C6.86707153 8.77535323 6.86707153 8.77535323 14 13 C14.33 12.34 14.66 11.68 15 11 C15.4846875 11.39832031 15.969375 11.79664063 16.46875 12.20703125 C21.15201331 15.90861052 25.3175548 18.17349976 31 20 C31 20.66 31 21.32 31 22 C25.62559249 21.48455171 21.74434434 20.1863833 16.875 17.6875 C15.10769531 16.79611328 15.10769531 16.79611328 13.3046875 15.88671875 C7.77214529 12.72806876 3.7263471 9.11041888 0 4 C0 2.68 0 1.36 0 0 Z " transform="translate(12,118)" style="fill: #D3BB5F;"/><path d="M0 0 C1.64846769 0.44876616 3.29373455 0.90930488 4.9375 1.375 C5.85402344 1.63023438 6.77054688 1.88546875 7.71484375 2.1484375 C10 3 10 3 11 5 C10.484375 5.4125 9.96875 5.825 9.4375 6.25 C8.7259375 7.11625 8.7259375 7.11625 8 8 C8.30271961 9.34061543 8.63837971 10.67405895 9 12 C8.375 14.1875 8.375 14.1875 7 16 C4.375 16.75 4.375 16.75 2 17 C2 17.66 2 18.32 2 19 C1.34 19 0.68 19 0 19 C1.15173355 16.53199953 2.04783565 14.95216435 4 13 C4.87990551 8.0138688 2.34433191 4.21770429 0 0 Z " transform="translate(200,22)" style="fill: #E1CC93;"/><path d="M0 0 C2.65400735 2.0473771 5.09468045 4.09710816 7.4375 6.5 C11.47173308 10.43583716 15.68781085 13.12510971 21 15 C17.25 16.125 17.25 16.125 15 15 C15 15.99 15 16.98 15 18 C11.37 18 7.74 18 4 18 C6 16 6 16 9 14 C8.66637484 10.88616521 8.07888595 10.06643028 5.625 8 C4.75875 7.34 3.8925 6.68 3 6 C0 2.48275862 0 2.48275862 0 0 Z " transform="translate(152,123)" style="fill: #D7B150;"/><path d="M0 0 C2.31 0.33 4.62 0.66 7 1 C7 1.66 7 2.32 7 3 C8.32 2.67 9.64 2.34 11 2 C10.67 2.99 10.34 3.98 10 5 C9.93197033 6.72795352 9.91504355 8.45835365 9.9375 10.1875 C9.95103516 11.53908203 9.95103516 11.53908203 9.96484375 12.91796875 C9.97644531 13.60503906 9.98804688 14.29210938 10 15 C8.02 15.33 6.04 15.66 4 16 C3.67 17.32 3.34 18.64 3 20 C3 17.69 3 15.38 3 13 C4.32 13 5.64 13 7 13 C6.67 12.67 6.34 12.34 6 12 C5.95907063 9.66702567 5.95758277 7.33294775 6 5 C4.02 4.34 2.04 3.68 0 3 C0 2.01 0 1.02 0 0 Z " transform="translate(219,28)" style="fill: #B3B3B3;"/><path d="M0 0 C0.33 0.99 0.66 1.98 1 3 C2.258125 3.0825 3.51625 3.165 4.8125 3.25 C8.72231986 3.71364236 8.72231986 3.71364236 11 6.0625 C11.33 6.701875 11.66 7.34125 12 8 C11.67 8.66 11.34 9.32 11 10 C9.9275 9.525625 8.855 9.05125 7.75 8.5625 C3.98907142 6.83638299 3.98907142 6.83638299 0 6 C-2.72981832 7.35400645 -2.72981832 7.35400645 -5 9 C-6.65 7.68 -8.3 6.36 -10 5 C-9.01 5 -8.02 5 -7 5 C-7 4.34 -7 3.68 -7 3 C-6.030625 2.87625 -5.06125 2.7525 -4.0625 2.625 C-2.5465625 2.315625 -2.5465625 2.315625 -1 2 C-0.67 1.34 -0.34 0.68 0 0 Z " transform="translate(218,19)" style="fill: #777274;"/><path d="M0 0 C1.65 0 3.3 0 5 0 C5.33 0.66 5.66 1.32 6 2 C6.99 2.33 7.98 2.66 9 3 C9 2.01 9 1.02 9 0 C9.66 0 10.32 0 11 0 C10.67 1.32 10.34 2.64 10 4 C7.69 4.33 5.38 4.66 3 5 C3.020625 6.11375 3.04125 7.2275 3.0625 8.375 C3 12 3 12 2 14 C-0.875 14.125 -0.875 14.125 -4 14 C-4.66 13.34 -5.32 12.68 -6 12 C-5.195625 11.773125 -4.39125 11.54625 -3.5625 11.3125 C-0.77060157 10.26000395 -0.77060157 10.26000395 -0.1875 7.5625 C0.03648782 4.92955824 0.03648782 4.92955824 0 2 C0 1.34 0 0.68 0 0 Z " transform="translate(208,27)" style="fill: #EDE3CB;"/><path d="M0 0 C0.66 0 1.32 0 2 0 C2 0.99 2 1.98 2 3 C2.763125 2.9175 3.52625 2.835 4.3125 2.75 C5.6428125 2.87375 5.6428125 2.87375 7 3 C8.04625409 4.29735507 9.04701223 5.63266972 10 7 C11.32860925 7.35169068 12.66158328 7.68770276 14 8 C14.33 8.99 14.66 9.98 15 11 C17.00016466 12.20882096 17.00016466 12.20882096 19 13 C19 13.66 19 14.32 19 15 C19.66 15 20.32 15 21 15 C20.67 15.99 20.34 16.98 20 18 C17.5 16.625 17.5 16.625 15 15 C15 14.34 15 13.68 15 13 C13.35 12.34 11.7 11.68 10 11 C10 10.34 10 9.68 10 9 C9.01 8.67 8.02 8.34 7 8 C6.67 7.34 6.34 6.68 6 6 C3.64400765 5.53248212 3.64400765 5.53248212 0.9375 5.375 C0.01839844 5.30023438 -0.90070313 5.22546875 -1.84765625 5.1484375 C-2.55792969 5.09945312 -3.26820312 5.05046875 -4 5 C-2.71937515 3.2925002 -1.38232443 1.62626404 0 0 Z " transform="translate(119,36)" style="fill: #D3A344;"/><path d="M0 0 C5.82239724 1.81949914 10.72698794 5.72698794 15 10 C11.88889488 11.03703504 9.73543305 11.27062965 6.6328125 10.12890625 C2.02825209 7.76778182 2.02825209 7.76778182 0 6 C-0.82421875 3.3828125 -0.82421875 3.3828125 -1 1 C-0.67 0.67 -0.34 0.34 0 0 Z " transform="translate(12,106)" style="fill: #EBC45F;"/><path d="M0 0 C0.66 0 1.32 0 2 0 C1.45712148 3.80014965 -0.11464643 5.53896313 -3 8 C-3.99 8.33 -4.98 8.66 -6 9 C-6.226875 9.66 -6.45375 10.32 -6.6875 11 C-8 13 -8 13 -9.796875 13.5546875 C-15.4084389 14.39437407 -15.4084389 14.39437407 -19 12 C-14.40219512 8.52058009 -9.89960617 6.81080844 -4.390625 5.125 C-1.85548766 4.19558238 -1.85548766 4.19558238 -0.671875 1.875 C-0.33929688 0.946875 -0.33929688 0.946875 0 0 Z " transform="translate(233,47)" style="fill: #352D28;"/><path d="M0 0 C3.2270744 1.07569147 3.91195966 1.77313844 6 4.3125 C6.51820312 4.9415625 7.03640625 5.570625 7.5703125 6.21875 C8.04210938 6.8065625 8.51390625 7.394375 9 8 C9.61875 8.763125 10.2375 9.52625 10.875 10.3125 C12 12 12 12 12 14 C12.66 14 13.32 14 14 14 C14.66 15.32 15.32 16.64 16 18 C11.82192316 16.62456232 9.37645833 14.7565839 6.3125 11.625 C5.54550781 10.85414062 4.77851563 10.08328125 3.98828125 9.2890625 C1.24507416 6.13087123 0 4.21049162 0 0 Z " transform="translate(12,115)" style="fill: #F9EDA0;"/><path d="M0 0 C6.625 -0.125 6.625 -0.125 10 1 C12.22574335 1.22451458 14.45581519 1.40782878 16.6875 1.5625 C17.86699219 1.64628906 19.04648438 1.73007813 20.26171875 1.81640625 C21.61716797 1.90728516 21.61716797 1.90728516 23 2 C22.67 2.66 22.34 3.32 22 4 C13.42 4 4.84 4 -4 4 C-2.68 3.67 -1.36 3.34 0 3 C0 2.01 0 1.02 0 0 Z " transform="translate(167,138)" style="fill: #C2A24A;"/><path d="M0 0 C1.76923828 0.01353516 1.76923828 0.01353516 3.57421875 0.02734375 C4.47785156 0.03894531 5.38148437 0.05054688 6.3125 0.0625 C4.95699874 3.1950699 4.41852195 3.9970822 1.375 5.875 C-2.50961105 8.64972218 -3.15445572 10.63370541 -4.6875 15.0625 C-5.0175 15.0625 -5.3475 15.0625 -5.6875 15.0625 C-5.31868644 8.91560727 -3.78699571 6.37222626 0.3125 2.0625 C-6.1225 2.5575 -6.1225 2.5575 -12.6875 3.0625 C-8.25030401 0.10436934 -5.23338583 -0.0518157 0 0 Z " transform="translate(46.6875,14.9375)" style="fill: #BD9D4A;"/><path d="M0 0 C0.53625 0.598125 1.0725 1.19625 1.625 1.8125 C5.26789063 5.167794 8.39008609 6.91056034 13.375 7.1875 C14.24125 7.125625 15.1075 7.06375 16 7 C15.01 8.98 14.02 10.96 13 13 C12.01 13 11.02 13 10 13 C9.67 12.34 9.34 11.68 9 11 C7.35636866 10.27840576 5.68949614 9.60648579 4 9 C4 8.34 4 7.68 4 7 C2.68 7 1.36 7 0 7 C0 4.69 0 2.38 0 0 Z " transform="translate(11,109)" style="fill: #EFCE70;"/><path d="M0 0 C2.3125 1.4375 2.3125 1.4375 4 3 C4 3.66 4 4.32 4 5 C4.66 5 5.32 5 6 5 C5.67 5.99 5.34 6.98 5 8 C2.525 7.01 2.525 7.01 0 6 C0 5.34 0 4.68 0 4 C-1.98 4 -3.96 4 -6 4 C-6.66 2.68 -7.32 1.36 -8 0 C-4.62858491 -1.12380503 -3.35507997 -0.98197462 0 0 Z " transform="translate(22,102)" style="fill: #F5DD81;"/><path d="M0 0 C0.66 0.33 1.32 0.66 2 1 C1.34773438 1.59425781 0.69546875 2.18851563 0.0234375 2.80078125 C-7.67924115 10.105829 -14.50944731 17.96256441 -15 29 C-15.99 29.33 -16.98 29.66 -18 30 C-17.16277754 17.16258898 -8.72694441 8.64356596 0 0 Z " transform="translate(121,32)" style="fill: #EDDCA1;"/><path d="M0 0 C0.73605469 0.00451172 1.47210938 0.00902344 2.23046875 0.01367188 C4.02868158 0.02534858 5.82685197 0.04327989 7.625 0.0625 C7.625 0.3925 7.625 0.7225 7.625 1.0625 C6.34625 1.289375 5.0675 1.51625 3.75 1.75 C-2.90174307 3.21296248 -8.73657233 6.30354822 -14.375 10.0625 C-12.92244301 6.23303157 -10.94604439 4.94199705 -7.375 3.0625 C-10.675 3.0625 -13.975 3.0625 -17.375 3.0625 C-12.04271274 -0.49235817 -6.19582164 -0.07282611 0 0 Z " transform="translate(167.375,14.9375)" style="fill: #CAAC47;"/><path d="M0 0 C0.99 0.99 1.98 1.98 3 3 C2.34 3 1.68 3 1 3 C0.67 8.28 0.34 13.56 0 19 C-0.99 19.33 -1.98 19.66 -3 20 C-3.33452052 12.56621057 -3.13902852 6.80122845 0 0 Z " transform="translate(198,23)" style="fill: #292527;"/><path d="M0 0 C8.21107745 1.05363383 14.77276143 4.05109645 22 8 C21.67 8.66 21.34 9.32 21 10 C20.01 10 19.02 10 18 10 C18 9.34 18 8.68 18 8 C17.01 8.33 16.02 8.66 15 9 C14.67 8.01 14.34 7.02 14 6 C13.34 6 12.68 6 12 6 C12 6.66 12 7.32 12 8 C11.01 8 10.02 8 9 8 C9 7.01 9 6.02 9 5 C4.545 3.02 4.545 3.02 0 1 C0 0.67 0 0.34 0 0 Z " transform="translate(64,57)" style="fill: #ECD687;"/><path d="M0 0 C0.625 1.8125 0.625 1.8125 1 4 C0.01 5.485 0.01 5.485 -1 7 C-4.125 7.1875 -4.125 7.1875 -7 7 C-7 7.66 -7 8.32 -7 9 C-9.97 8.505 -9.97 8.505 -13 8 C-12.67 7.34 -12.34 6.68 -12 6 C-11.34 6 -10.68 6 -10 6 C-10 5.34 -10 4.68 -10 4 C-9.04287109 3.81824219 -9.04287109 3.81824219 -8.06640625 3.6328125 C-7.24011719 3.46523438 -6.41382813 3.29765625 -5.5625 3.125 C-4.73878906 2.96257813 -3.91507813 2.80015625 -3.06640625 2.6328125 C-2.38449219 2.42398437 -1.70257813 2.21515625 -1 2 C-0.67 1.34 -0.34 0.68 0 0 Z " transform="translate(218,15)" style="fill: #464040;"/><path d="M0 0 C0.66 0.33 1.32 0.66 2 1 C1.34 1.66 0.68 2.32 0 3 C0.66 3.33 1.32 3.66 2 4 C2 4.66 2 5.32 2 6 C-0.43143935 7.66727269 -2.71505361 8.90026876 -5.5 9.875 C-8.71325345 11.32096405 -10.6320954 13.42913215 -13 16 C-13.66 15.67 -14.32 15.34 -15 15 C-10.05 10.05 -5.1 5.1 0 0 Z " transform="translate(105,93)" style="fill: #D5B348;"/><path d="M0 0 C0.33 0.99 0.66 1.98 1 3 C3.5452954 5.12734933 3.5452954 5.12734933 6.5625 7.1875 C7.57441406 7.90292969 8.58632812 8.61835937 9.62890625 9.35546875 C10.41136719 9.89816406 11.19382812 10.44085938 12 11 C11.01 11.495 11.01 11.495 10 12 C9.154375 11.401875 8.30875 10.80375 7.4375 10.1875 C4.11600768 7.9599598 0.70795447 6.48318179 -3 5 C-3.99 5.99 -4.98 6.98 -6 8 C-6.66 7.67 -7.32 7.34 -8 7 C-5.36 4.69 -2.72 2.38 0 0 Z " transform="translate(115,85)" style="fill: #E0BF5F;"/><path d="M0 0 C3.62276315 1.3255581 6.63505348 2.94346955 9.8125 5.125 C10.60269531 5.66382813 11.39289063 6.20265625 12.20703125 6.7578125 C12.79871094 7.16773438 13.39039063 7.57765625 14 8 C13.67 9.32 13.34 10.64 13 12 C12.01 11.67 11.02 11.34 10 11 C10 9.68 10 8.36 10 7 C9.319375 6.9175 8.63875 6.835 7.9375 6.75 C4.1253093 5.77667472 1.35929671 4.04192545 -2 2 C-1.34 1.34 -0.68 0.68 0 0 Z " transform="translate(131,27)" style="fill: #CEA547;"/><path d="M0 0 C0.99 0.33 1.98 0.66 3 1 C0.61426621 2.89213369 -1.07175348 4.02391783 -4 5 C-4.99 6.485 -4.99 6.485 -6 8 C-6.99 8.33 -7.98 8.66 -9 9 C-10.22520264 12.00847418 -10.22520264 12.00847418 -11 15 C-11.99 15 -12.98 15 -14 15 C-14.33 14.01 -14.66 13.02 -15 12 C-10.68074087 7.24881495 -5.6487497 3.08287695 0 0 Z " transform="translate(34,18)" style="fill: #EDD67D;"/><path d="M0 0 C0.07347656 1.17369141 0.07347656 1.17369141 0.1484375 2.37109375 C0.22320312 3.38300781 0.29796875 4.39492187 0.375 5.4375 C0.44460937 6.44683594 0.51421875 7.45617187 0.5859375 8.49609375 C0.72257812 9.32238281 0.85921875 10.14867188 1 11 C1.66 11.33 2.32 11.66 3 12 C2.01 13.485 2.01 13.485 1 15 C0.01 14.67 -0.98 14.34 -2 14 C-2.19393875 11.85473901 -2.37998676 9.70876323 -2.5625 7.5625 C-2.71912109 5.77005859 -2.71912109 5.77005859 -2.87890625 3.94140625 C-2.91886719 2.97074219 -2.95882812 2.00007813 -3 1 C-2 0 -2 0 0 0 Z " transform="translate(104,63)" style="fill: #E6D387;"/><path d="M0 0 C1.41930621 2.64937159 2.3391146 5.07322179 3 8 C3.33 8.99 3.66 9.98 4 11 C6.10584438 11.80563638 6.10584438 11.80563638 8.5625 12.1875 C9.38878906 12.34605469 10.21507813 12.50460938 11.06640625 12.66796875 C11.70449219 12.77753906 12.34257813 12.88710938 13 13 C12.67 13.66 12.34 14.32 12 15 C9.08083462 15.34751969 6.86804524 15.53280018 4.30078125 13.95703125 C2.11660035 12.15362765 0.27793808 10.55587616 -1 8 C-1.125 4.4375 -1.125 4.4375 -1 1 C-0.67 0.67 -0.34 0.34 0 0 Z " transform="translate(83,39)" style="fill: #D4C27E;"/><path d="M0 0 C0.66 0 1.32 0 2 0 C0.71741712 3.84774864 -1.07619086 4.88856664 -4.25 7.375 C-8.08453575 10.39081055 -11.60505938 13.49354674 -15 17 C-17.475 16.01 -17.475 16.01 -20 15 C-20 14.67 -20 14.34 -20 14 C-18.989375 13.814375 -17.97875 13.62875 -16.9375 13.4375 C-12.72937114 12.26194983 -10.48721591 9.82676825 -7.5703125 6.6875 C-5.86026564 4.8498377 -4.12647442 3.3388913 -2 2 C-1.34 2 -0.68 2 0 2 C0 1.34 0 0.68 0 0 Z " transform="translate(89,85)" style="fill: #D6C36F;"/><path d="M0 0 C1.32 0 2.64 0 4 0 C4.05434116 2.5419589 4.0938339 5.08273682 4.125 7.625 C4.14175781 8.33785156 4.15851563 9.05070312 4.17578125 9.78515625 C4.21684602 14.2612164 3.69086567 17.77949278 2 22 C1.34 21.34 0.68 20.68 0 20 C0.33 19.67 0.66 19.34 1 19 C1.10004903 16.75183935 1.12966884 14.50038093 1.125 12.25 C1.12757813 11.01765625 1.13015625 9.7853125 1.1328125 8.515625 C1.02005368 5.53083273 0.69588968 2.89401738 0 0 Z " transform="translate(235,25)" style="fill: #322F30;"/><path d="M0 0 C1.32 0.33 2.64 0.66 4 1 C4 3.64 4 6.28 4 9 C-0.77127008 7.09149197 -4.84768158 5.03828177 -9 2 C-9 1.67 -9 1.34 -9 1 C-7.35 1 -5.7 1 -4 1 C-3.67 1.66 -3.34 2.32 -3 3 C-0.97536745 3.65213292 -0.97536745 3.65213292 1 4 C1.33 3.34 1.66 2.68 2 2 C1.34 2 0.68 2 0 2 C0 1.34 0 0.68 0 0 Z " transform="translate(26,105)" style="fill: #E1C36B;"/><path d="M0 0 C4.03521092 0.63662308 6.89325919 2.69561876 10.25 4.9375 C11.32765625 5.64777344 12.4053125 6.35804687 13.515625 7.08984375 C14.33546875 7.72019531 15.1553125 8.35054687 16 9 C16 9.66 16 10.32 16 11 C11.49484812 10.46465288 8.80499834 8.74051417 5.1875 6.0625 C4.21167969 5.35222656 3.23585938 4.64195313 2.23046875 3.91015625 C1.49441406 3.27980469 0.75835937 2.64945312 0 2 C0 1.34 0 0.68 0 0 Z " transform="translate(12,104)" style="fill: #B5862E;"/><path d="M0 0 C4.95 1.98 4.95 1.98 10 4 C9.01 5.485 9.01 5.485 8 7 C4.27698497 7.47730962 3.20808915 7.1387261 0 5 C0 3.35 0 1.7 0 0 Z " transform="translate(209,50)" style="fill: #FBF5C5;"/><path d="M0 0 C6.30267439 0.36776168 11.33251843 1.16625922 17 4 C16.01 4.99 15.02 5.98 14 7 C13.40832031 6.73445313 12.81664063 6.46890625 12.20703125 6.1953125 C8.1650823 4.38863385 4.1300563 2.59873147 0 1 C0 0.67 0 0.34 0 0 Z " transform="translate(69,16)" style="fill: #CAAD41;"/><path d="M0 0 C2.375 0.3125 2.375 0.3125 5 1 C5.66 1.99 6.32 2.98 7 4 C7.66 4.28875 8.32 4.5775 9 4.875 C11.71065245 6.399742 11.9107902 8.16805452 13 11 C13.99 11.33 14.98 11.66 16 12 C15.01 12.495 15.01 12.495 14 13 C13.23816406 12.27683594 13.23816406 12.27683594 12.4609375 11.5390625 C8.49830028 7.90293471 5.38831189 5.21237017 0 4 C0 2.68 0 1.36 0 0 Z " transform="translate(107,97)" style="fill: #D3A140;"/><path d="M0 0 C1.9375 0.8125 1.9375 0.8125 4 2 C4.33 2.99 4.66 3.98 5 5 C5.99 5.33 6.98 5.66 8 6 C9.50156874 9.00313748 9.09281204 11.79067522 9.0625 15.125 C9.05347656 16.40632813 9.04445312 17.68765625 9.03515625 19.0078125 C9.02355469 19.99523437 9.01195312 20.98265625 9 22 C8.34 22.33 7.68 22.66 7 23 C7 18.05 7 13.1 7 8 C5.68 7.34 4.36 6.68 3 6 C0 2.57142857 0 2.57142857 0 0 Z " transform="translate(228,22)" style="fill: #464344;"/><path d="M0 0 C4.75 0.875 4.75 0.875 7 2 C7 2.66 7 3.32 7 4 C7.5775 4.0825 8.155 4.165 8.75 4.25 C11.6159304 5.20531013 12.9990764 6.78469173 15 9 C14.01 9.33 13.02 9.66 12 10 C9.75 8.375 9.75 8.375 7 6 C5.73654999 5.09378326 4.46550734 4.19806872 3.1875 3.3125 C2.135625 2.549375 1.08375 1.78625 0 1 C0 0.67 0 0.34 0 0 Z " transform="translate(147,126)" style="fill: #CF9F3C;"/><path d="M0 0 C0.33 0.66 0.66 1.32 1 2 C3.3140622 2.73075648 5.64828869 3.40138258 8 4 C8.12375 4.928125 8.12375 4.928125 8.25 5.875 C8.81258459 8.18437567 8.81258459 8.18437567 11.0625 9.25 C11.701875 9.4975 12.34125 9.745 13 10 C12.01 10.495 12.01 10.495 11 11 C6.42578999 8.77824085 2.7684984 5.35580981 -1 2 C-0.67 1.34 -0.34 0.68 0 0 Z " transform="translate(112,89)" style="fill: #C49539;"/><path d="M0 0 C5.75 2.75 5.75 2.75 8 5 C9.64991582 5.70710678 11.31562256 6.37943989 13 7 C12.67 7.66 12.34 8.32 12 9 C9.69 8.34 7.38 7.68 5 7 C5 6.34 5 5.68 5 5 C3.35 5 1.7 5 0 5 C-0.5625 3.0625 -0.5625 3.0625 -1 1 C-0.67 0.67 -0.34 0.34 0 0 Z " transform="translate(121,34)" style="fill: #BD8730;"/><path d="M0 0 C0.93423645 3.01031744 1.04449911 3.86650268 0 7 C-2.97 6.67 -5.94 6.34 -9 6 C-6.07175348 3.07175348 -3.7020007 1.72760033 0 0 Z " transform="translate(138,71)" style="fill: #DDBF55;"/><path d="M0 0 C-7.04241466 4.69494311 -15.98848014 2.79382438 -24 2 C-24 1.67 -24 1.34 -24 1 C-23.04738281 0.93941406 -22.09476563 0.87882813 -21.11328125 0.81640625 C-19.23189453 0.69072266 -19.23189453 0.69072266 -17.3125 0.5625 C-16.07113281 0.48128906 -14.82976562 0.40007812 -13.55078125 0.31640625 C-10.11129044 0.07580315 -10.11129044 0.07580315 -7.21875 -0.5625 C-4.55768272 -1.08721749 -2.60511683 -0.66988719 0 0 Z " transform="translate(201,138)" style="fill: #977934;"/><path d="M0 0 C0.33 1.32 0.66 2.64 1 4 C-1.475 5.485 -1.475 5.485 -4 7 C-5.65 5.68 -7.3 4.36 -9 3 C-8.01 3 -7.02 3 -6 3 C-6 2.34 -6 1.68 -6 1 C-4.02 0.67 -2.04 0.34 0 0 Z " transform="translate(217,21)" style="fill: #6B655F;"/><path d="M0 0 C0.66 0.268125 1.32 0.53625 2 0.8125 C5.64939067 2.25705047 9.32245433 3.62871178 13 5 C13 5.66 13 6.32 13 7 C7.72250715 6.46148032 3.74354436 5.22656164 -1 3 C-0.67 2.01 -0.34 1.02 0 0 Z " transform="translate(30,133)" style="fill: #C09F45;"/><path d="M0 0 C2.00970734 0.98034504 4.00729869 1.98553388 6 3 C6.59941406 3.2784375 7.19882813 3.556875 7.81640625 3.84375 C12.77922968 6.33052114 14.6025565 9.01331752 17 14 C16.01 13.67 15.02 13.34 14 13 C14 12.34 14 11.68 14 11 C13.01 10.67 12.02 10.34 11 10 C9.99174733 9.00832135 8.99258374 8.00736166 8 7 C5.91708539 5.65785426 3.78923086 4.42404163 1.64453125 3.18359375 C1.10183594 2.79300781 0.55914062 2.40242188 0 2 C0 1.34 0 0.68 0 0 Z " transform="translate(112,98)" style="fill: #BC862E;"/><path d="M0 0 C5.28 0 10.56 0 16 0 C16 0.99 16 1.98 16 3 C13.89646505 3.0810206 11.79204048 3.13919907 9.6875 3.1875 C8.51574219 3.22230469 7.34398437 3.25710937 6.13671875 3.29296875 C3 3 3 3 0 0 Z " transform="translate(165,14)" style="fill: #997D30;"/><path d="M0 0 C6.75 0.875 6.75 0.875 9 2 C10.0703125 3.84765625 10.0703125 3.84765625 11.125 6.0625 C11.47820312 6.79597656 11.83140625 7.52945312 12.1953125 8.28515625 C12.46085938 8.85105469 12.72640625 9.41695312 13 10 C12.34 10 11.68 10 11 10 C8 6.53846154 8 6.53846154 8 4 C5.36 3.67 2.72 3.34 0 3 C0 2.01 0 1.02 0 0 Z " transform="translate(219,19)" style="fill: #545051;"/><path d="M0 0 C4.76560621 1.40164889 7.95882443 4.15411474 11 8 C11 8.66 11 9.32 11 10 C9.68 10 8.36 10 7 10 C5.078125 8.06640625 5.078125 8.06640625 3.25 5.5625 C2.63640625 4.73878906 2.0228125 3.91507813 1.390625 3.06640625 C0 1 0 1 0 0 Z " transform="translate(227,15)" style="fill: #232222;"/><path d="M0 0 C6.93 3.96 6.93 3.96 14 8 C9.66760747 9.08309813 8.80266424 8.95008423 5 7 C3.375 5.5 3.375 5.5 2 4 C1.01 3.34 0.02 2.68 -1 2 C-0.67 1.34 -0.34 0.68 0 0 Z " transform="translate(46,47)" style="fill: #F9E48A;"/><path d="M0 0 C2.00461299 0.65266469 4.00379834 1.32204472 6 2 C6.9075 2.268125 7.815 2.53625 8.75 2.8125 C11 4 11 4 12.375 6.4375 C13 9 13 9 12 12 C11.40251953 11.25943359 11.40251953 11.25943359 10.79296875 10.50390625 C9.99826172 9.54291016 9.99826172 9.54291016 9.1875 8.5625 C8.66542969 7.92441406 8.14335937 7.28632812 7.60546875 6.62890625 C5.99165589 4.7451725 5.99165589 4.7451725 3 4 C3 3.34 3 2.68 3 2 C2.01 1.67 1.02 1.34 0 1 C0 0.67 0 0.34 0 0 Z " transform="translate(130,30)" style="fill: #BE8D35;"/><path d="M0 0 C5.3762621 2.91214197 10.17918273 6.24351901 15 10 C14.67 10.66 14.34 11.32 14 12 C10.4776541 9.71047517 7.02492776 7.34327496 3.625 4.875 C2.59246094 4.12863281 2.59246094 4.12863281 1.5390625 3.3671875 C1.03117188 2.91601562 0.52328125 2.46484375 0 2 C0 1.34 0 0.68 0 0 Z " transform="translate(127,97)" style="fill: #E4C05C;"/><path d="M0 0 C1.43836751 0.11458693 2.87570966 0.24209116 4.3125 0.375 C5.51326172 0.47941406 5.51326172 0.47941406 6.73828125 0.5859375 C9 1 9 1 12 3 C11.67 3.66 11.34 4.32 11 5 C5.06 3.515 5.06 3.515 -1 2 C-0.67 1.34 -0.34 0.68 0 0 Z " transform="translate(182,15)" style="fill: #AB8B42;"/><path d="M0 0 C4.59306496 1.4859916 7.43569245 3.85014682 11 7 C10.34 7.66 9.68 8.32 9 9 C5.7 6.69 2.4 4.38 -1 2 C-0.67 1.34 -0.34 0.68 0 0 Z " transform="translate(12,106)" style="fill: #E4B553;"/><path d="M0 0 C0.33 0 0.66 0 1 0 C1 2.64 1 5.28 1 8 C-1.875 8.125 -1.875 8.125 -5 8 C-5.66 7.34 -6.32 6.68 -7 6 C-6.21625 5.7525 -5.4325 5.505 -4.625 5.25 C-1.67682892 3.84610901 -1.0975223 2.99324263 0 0 Z " transform="translate(209,33)" style="fill: #F6E7B7;"/><path d="M0 0 C2.00240521 2.25270587 2.94368221 3.60577544 3.375 6.625 C3.25125 7.40875 3.1275 8.1925 3 9 C1.515 9.99 1.515 9.99 0 11 C-0.77675511 7.60169639 -1.19382275 4.48880949 -1 1 C-0.67 0.67 -0.34 0.34 0 0 Z " transform="translate(202,26)" style="fill: #5D574E;"/><path d="M0 0 C1.64846769 0.44876616 3.29373455 0.90930488 4.9375 1.375 C5.85402344 1.63023438 6.77054688 1.88546875 7.71484375 2.1484375 C10 3 10 3 11 5 C9.35 4.67 7.7 4.34 6 4 C5.34 5.32 4.68 6.64 4 8 C2.68 5.36 1.36 2.72 0 0 Z " transform="translate(200,22)" style="fill: #D4BD76;"/><path d="M0 0 C2.31 0 4.62 0 7 0 C7 0.66 7 1.32 7 2 C7.66 2.33 8.32 2.66 9 3 C4.59085217 4.10228696 0.51617599 4.07654536 -4 4 C-2.68 3.67 -1.36 3.34 0 3 C0 2.01 0 1.02 0 0 Z " transform="translate(167,138)" style="fill: #BC9430;"/><path d="M0 0 C0.33 0.66 0.66 1.32 1 2 C-0.65 2.33 -2.3 2.66 -4 3 C-4 3.66 -4 4.32 -4 5 C-5.8125 6.0625 -5.8125 6.0625 -8 7 C-8.99 6.67 -9.98 6.34 -11 6 C-10.01 5.67 -9.02 5.34 -8 5 C-8 4.34 -8 3.68 -8 3 C-5.65966534 -0.20256322 -3.8395009 -0.31131088 0 0 Z " transform="translate(233,44)" style="fill: #6D6B69;"/><path d="M0 0 C1.32 0 2.64 0 4 0 C3.65120368 3.25543229 2.97866739 4.01873107 0.4375 6.25 C-0.366875 6.8275 -1.17125 7.405 -2 8 C-2.66 7.67 -3.32 7.34 -4 7 C-2.68 4.69 -1.36 2.38 0 0 Z " transform="translate(97,123)" style="fill: #F7DC7B;"/><path d="M0 0 C4.75 0.875 4.75 0.875 7 2 C7 2.66 7 3.32 7 4 C8.65 4.33 10.3 4.66 12 5 C11.67 5.99 11.34 6.98 11 8 C10.34 7.34 9.68 6.68 9 6 C7.35008418 5.29289322 5.68437744 4.62056011 4 4 C4 3.34 4 2.68 4 2 C2.68 2 1.36 2 0 2 C0 1.34 0 0.68 0 0 Z " transform="translate(11,114)" style="fill: #F4DA81;"/><path d="M0 0 C0.30466674 5.28089024 0.317124 6.577168 -3 11 C-3 7.7 -3 4.4 -3 1 C-1 0 -1 0 0 0 Z " transform="translate(222,42)" style="fill: #F1E7BF;"/><path d="M0 0 C-1.44253657 3.36591866 -3.33264727 5.51047079 -6 8 C-6.125 5.125 -6.125 5.125 -6 2 C-4 0 -4 0 0 0 Z " transform="translate(47,17)" style="fill: #F6D16C;"/><path d="M0 0 C0.33 0.66 0.66 1.32 1 2 C-0.07192184 3.3218362 -1.15802695 4.63217927 -2.25 5.9375 C-2.85328125 6.66839844 -3.4565625 7.39929688 -4.078125 8.15234375 C-6.10741134 10.10326334 -7.254407 10.61731779 -10 11 C-9.278125 10.29875 -8.55625 9.5975 -7.8125 8.875 C-5.00176187 6.07229255 -2.50483774 3.07737208 0 0 Z " transform="translate(105,122)" style="fill: #211501;"/><path d="M0 0 C0.66 0.33 1.32 0.66 2 1 C2 1.66 2 2.32 2 3 C1.34 3 0.68 3 0 3 C0.061875 3.78375 0.12375 4.5675 0.1875 5.375 C0.125625 6.24125 0.06375 7.1075 0 8 C-1.485 8.99 -1.485 8.99 -3 10 C-3 5.66905042 -2.03435531 3.72965139 0 0 Z " transform="translate(110,113)" style="fill: #241705;"/><path d="M0 0 C1.32 0.33 2.64 0.66 4 1 C4 1.66 4 2.32 4 3 C4.66 3 5.32 3 6 3 C5.67 3.99 5.34 4.98 5 6 C2.525 5.01 2.525 5.01 0 4 C0 2.68 0 1.36 0 0 Z " transform="translate(22,104)" style="fill: #FDEA8E;"/><path d="M0 0 C1.58560393 0.25720674 3.16845924 0.53138799 4.75 0.8125 C5.63171875 0.96332031 6.5134375 1.11414062 7.421875 1.26953125 C10.1910911 2.05414248 11.8259401 3.14595359 14 5 C8.72250715 4.46148032 4.74354436 3.22656164 0 1 C0 0.67 0 0.34 0 0 Z " transform="translate(64,57)" style="fill: #DEC96F;"/><path d="M0 0 C1.37432457 3.81756824 0.67975039 7.07255329 0 11 C-0.99 11.33 -1.98 11.66 -3 12 C-2.49202991 7.6822542 -1.80317221 3.96697886 0 0 Z " transform="translate(106,50)" style="fill: #E1D295;"/><path d="M0 0 C0.66 0 1.32 0 2 0 C1.45738189 3.79832675 0.04889927 5.69272487 -3 8 C-6.25 8.25 -6.25 8.25 -9 8 C-6 6 -6 6 -3.375 4.5625 C-0.70953007 3.15982726 -0.70953007 3.15982726 0 0 Z " transform="translate(233,47)" style="fill: #363334;"/><path d="M0 0 C1.98 0.66 3.96 1.32 6 2 C6 2.66 6 3.32 6 4 C6.99 4.33 7.98 4.66 9 5 C9 5.33 9 5.66 9 6 C6.75 6.25 6.75 6.25 4 6 C1.6875 4.125 1.6875 4.125 0 2 C0 1.34 0 0.68 0 0 Z " transform="translate(121,95)" style="fill: #D4A64B;"/><path d="M0 0 C-3.96 2.475 -3.96 2.475 -8 5 C-8.66 3.68 -9.32 2.36 -10 1 C-3.375 -1.125 -3.375 -1.125 0 0 Z " transform="translate(161,18)" style="fill: #FBEB80;"/><path d="M0 0 C3.48330216 0.64505596 6.09432866 1.98217268 9 4 C9 4.66 9 5.32 9 6 C5.51669784 5.35494404 2.90567134 4.01782732 0 2 C0 1.34 0 0.68 0 0 Z " transform="translate(12,104)" style="fill: #B28224;"/><path d="M0 0 C0.33 0 0.66 0 1 0 C0.38461538 7.50769231 0.38461538 7.50769231 -1.5625 10 C-2.2740625 10.495 -2.2740625 10.495 -3 11 C-3.66 10.67 -4.32 10.34 -5 10 C-4.01 8.02 -3.02 6.04 -2 4 C-1.34 4 -0.68 4 0 4 C0 2.68 0 1.36 0 0 Z " transform="translate(102,41)" style="fill: #EDDA9C;"/><path d="M0 0 C0 0.99 0 1.98 0 3 C-1.98 3 -3.96 3 -6 3 C-6 3.66 -6 4.32 -6 5 C-7.32 4.67 -8.64 4.34 -10 4 C-7.80202597 1.80202597 -6.82453855 1.54102483 -3.875 0.875 C-2.59625 0.58625 -1.3175 0.2975 0 0 Z " transform="translate(217,19)" style="fill: #564F4F;"/><path d="M0 0 C0.763125 0.309375 1.52625 0.61875 2.3125 0.9375 C4.18789677 1.67893593 6.08684652 2.36228217 8 3 C9.1875 5.0625 9.1875 5.0625 10 7 C5.56541027 5.6062718 3.12621626 3.39417765 0 0 Z " transform="translate(137,119)" style="fill: #D4A242;"/><path d="M0 0 C3.39914975 1.13304992 4.05254451 2.12518475 6 5 C5.34 5 4.68 5 4 5 C3.67 5.99 3.34 6.98 3 8 C0 3.375 0 3.375 0 0 Z " transform="translate(12,115)" style="fill: #FBE693;"/><path d="M0 0 C0.99 0.33 1.98 0.66 3 1 C0.69 3.31 -1.62 5.62 -4 8 C-4.66 7.34 -5.32 6.68 -6 6 C-5.34 6 -4.68 6 -4 6 C-3.34 4.68 -2.68 3.36 -2 2 C-1.34 2 -0.68 2 0 2 C0 1.34 0 0.68 0 0 Z " transform="translate(96,99)" style="fill: #201400;"/><path d="M0 0 C2.56695636 0.39491636 4.67123994 0.83561997 7 2 C7 2.66 7 3.32 7 4 C1.25 3.25 1.25 3.25 -1 1 C-0.67 0.67 -0.34 0.34 0 0 Z " transform="translate(42,83)" style="fill: #FDEEBE;"/><path d="M0 0 C0.66 0.33 1.32 0.66 2 1 C-1.65333143 3.63379708 -4.48521602 5.46884894 -9 6 C-9 5.34 -9 4.68 -9 4 C-7.54618103 3.30300448 -6.08677047 2.61766134 -4.625 1.9375 C-3.40683594 1.36322266 -3.40683594 1.36322266 -2.1640625 0.77734375 C-1.44992188 0.52082031 -0.73578125 0.26429687 0 0 Z " transform="translate(231,49)" style="fill: #464243;"/><path d="M0 0 C0.66 0 1.32 0 2 0 C2 1.65 2 3.3 2 5 C0.02 5 -1.96 5 -4 5 C-2.71937515 3.2925002 -1.38232443 1.62626404 0 0 Z " transform="translate(119,36)" style="fill: #D8AA4F;"/><path d="M0 0 C1.65 0 3.3 0 5 0 C5.33 0.99 5.66 1.98 6 3 C3.69 3.33 1.38 3.66 -1 4 C-0.67 2.68 -0.34 1.36 0 0 Z " transform="translate(208,27)" style="fill: #ECE0AC;"/><path d="M0 0 C3.67420866 0.30618405 4.78135513 0.75771784 7.3125 3.5625 C8.1478125 4.7690625 8.1478125 4.7690625 9 6 C8.01 6.495 8.01 6.495 7 7 C7 6.34 7 5.68 7 5 C6.401875 4.731875 5.80375 4.46375 5.1875 4.1875 C3.02775192 3.01506533 1.64209744 1.80630718 0 0 Z " transform="translate(147,123)" style="fill: #B5842E;"/><path d="M0 0 C0.66 0.33 1.32 0.66 2 1 C0.35 2.65 -1.3 4.3 -3 6 C-5.475 5.01 -5.475 5.01 -8 4 C-8 3.67 -8 3.34 -8 3 C-6.865625 2.690625 -5.73125 2.38125 -4.5625 2.0625 C-1.21224901 1.37075469 -1.21224901 1.37075469 0 0 Z " transform="translate(77,96)" style="fill: #C3AC50;"/><path d="M0 0 C0 0.66 0 1.32 0 2 C-0.66 2 -1.32 2 -2 2 C-1.67 3.32 -1.34 4.64 -1 6 C-1.99 6.495 -1.99 6.495 -3 7 C-3.99 6.34 -4.98 5.68 -6 5 C-3.74193548 0 -3.74193548 0 0 0 Z " transform="translate(129,77)" style="fill: #ECDD86;"/><path d="M0 0 C0.33 0 0.66 0 1 0 C1.33 2.64 1.66 5.28 2 8 C1.01 8.33 0.02 8.66 -1 9 C-1.33 8.01 -1.66 7.02 -2 6 C-2.66 5.34 -3.32 4.68 -4 4 C-2.68 4 -1.36 4 0 4 C0 2.68 0 1.36 0 0 Z " transform="translate(101,71)" style="fill: #EFDF9B;"/><path d="M0 0 C0.2475 0.598125 0.495 1.19625 0.75 1.8125 C1.87980389 4.13293213 1.87980389 4.13293213 4.125 5.5625 C4.74375 6.036875 5.3625 6.51125 6 7 C6 7.99 6 8.98 6 10 C2.5442399 8.84807997 1.80171463 8.08865366 0 5 C-0.1875 2.25 -0.1875 2.25 0 0 Z " transform="translate(200,41)" style="fill: #F8F1B9;"/><path d="M0 0 C0.66 0.33 1.32 0.66 2 1 C2 2.98 2 4.96 2 7 C1.01 7.33 0.02 7.66 -1 8 C-1.04241723 5.66705225 -1.04092937 3.33297433 -1 1 C-0.67 0.67 -0.34 0.34 0 0 Z " transform="translate(200,31)" style="fill: #423F3C;"/><path d="M0 0 C0.99 0.99 1.98 1.98 3 3 C2.34 3 1.68 3 1 3 C0.87625 3.639375 0.7525 4.27875 0.625 4.9375 C0.41875 5.618125 0.2125 6.29875 0 7 C-0.99 7.495 -0.99 7.495 -2 8 C-1.125 1.125 -1.125 1.125 0 0 Z " transform="translate(198,23)" style="fill: #241E1B;"/><path d="M0 0 C0.66 0.33 1.32 0.66 2 1 C1.67 1.33 1.34 1.66 1 2 C2.32 2.66 3.64 3.32 5 4 C2.36 4.33 -0.28 4.66 -3 5 C-1.125 1.125 -1.125 1.125 0 0 Z " transform="translate(68,137)" style="fill: #917841;"/><path d="M0 0 C2.97 0.495 2.97 0.495 6 1 C6 1.99 6 2.98 6 4 C3.69 3.67 1.38 3.34 -1 3 C-0.67 2.01 -0.34 1.02 0 0 Z " transform="translate(145,135)" style="fill: #D0B756;"/><path d="M0 0 C0.33 0 0.66 0 1 0 C1 3.63 1 7.26 1 11 C0.34 11 -0.32 11 -1 11 C-2.60080151 6.99799622 -1.29279692 3.95443764 0 0 Z " transform="translate(139,81)" style="fill: #E0D396;"/><path d="M0 0 C2.35171131 0.59861742 4.6859378 1.26924352 7 2 C7.33 2.66 7.66 3.32 8 4 C4.28400809 4.20086443 3.22791555 4.1519437 0 2 C0 1.34 0 0.68 0 0 Z " transform="translate(209,53)" style="fill: #F8F4B6;"/><path d="M0 0 C2.31 0.33 4.62 0.66 7 1 C4 3 4 3 1 3 C0.67 4.32 0.34 5.64 0 7 C0 4.69 0 2.38 0 0 Z " transform="translate(222,41)" style="fill: #C3C0BA;"/><path d="M0 0 C1.34110539 2.20887947 2.06609767 3.45469419 1.75 6.0625 C1 8 1 8 -1 11 C-1.125 3.375 -1.125 3.375 0 0 Z " transform="translate(42,27)" style="fill: #392E13;"/><path d="M0 0 C0.33 1.32 0.66 2.64 1 4 C0.34 4 -0.32 4 -1 4 C-1 4.99 -1 5.98 -1 7 C-2.32 6.67 -3.64 6.34 -5 6 C-3.35 4.02 -1.7 2.04 0 0 Z " transform="translate(218,23)" style="fill: #B2ADAC;"/><path d="M0 0 C0 0.99 0 1.98 0 3 C-1.98 3.99 -1.98 3.99 -4 5 C-4.99 4.01 -5.98 3.02 -7 2 C-4.69 1.34 -2.38 0.68 0 0 Z " transform="translate(217,23)" style="fill: #89837F;"/><path d="M0 0 C2.31 0.66 4.62 1.32 7 2 C7 2.66 7 3.32 7 4 C4.69 3.67 2.38 3.34 0 3 C0 2.01 0 1.02 0 0 Z " transform="translate(36,136)" style="fill: #A58F4B;"/><path d="M0 0 C0.99 0.33 1.98 0.66 3 1 C2.67 2.32 2.34 3.64 2 5 C0.68 4.67 -0.64 4.34 -2 4 C-1.34 2.68 -0.68 1.36 0 0 Z " transform="translate(84,124)" style="fill: #F1E390;"/><path d="M0 0 C0 1.65 0 3.3 0 5 C-1.65 5 -3.3 5 -5 5 C-5 3 -5 3 -3.625 1.375 C-2 0 -2 0 0 0 Z " transform="translate(220,124)" style="fill: #9A7D40;"/><path d="M0 0 C2.875 0.6875 2.875 0.6875 6 2 C7.375 4.625 7.375 4.625 8 7 C6.66144944 6.21718695 5.32926356 5.42348123 4 4.625 C3.2575 4.18414062 2.515 3.74328125 1.75 3.2890625 C1.1725 2.86367187 0.595 2.43828125 0 2 C0 1.34 0 0.68 0 0 Z " transform="translate(137,109)" style="fill: #BC8630;"/><path d="M0 0 C0.99 0 1.98 0 3 0 C3 0.66 3 1.32 3 2 C3.639375 2.28875 4.27875 2.5775 4.9375 2.875 C7 4 7 4 8 6 C5.0280615 4.87548273 2.66559313 3.77706209 0 2 C0 1.34 0 0.68 0 0 Z " transform="translate(127,101)" style="fill: #C49037;"/><path d="M0 0 C2.18975773 3.28463659 2.99806563 6.20696275 4 10 C3.34 10 2.68 10 2 10 C-0.4294516 6.3558226 -0.16179575 4.28758728 0 0 Z " transform="translate(140,99)" style="fill: #E9D67D;"/><path d="M0 0 C3.4375 0.8125 3.4375 0.8125 7 2 C7.33 2.99 7.66 3.98 8 5 C4.62496331 3.8141763 2.35277269 2.72426311 0 0 Z " transform="translate(21,101)" style="fill: #CCA941;"/><path d="M0 0 C1.65 1.65 3.3 3.3 5 5 C2.36 4.67 -0.28 4.34 -3 4 C-2.01 2.68 -1.02 1.36 0 0 Z " transform="translate(107,93)" style="fill: #C28A24;"/><path d="M0 0 C2.64 0.33 5.28 0.66 8 1 C7.67 2.32 7.34 3.64 7 5 C6.34 5 5.68 5 5 5 C5 4.34 5 3.68 5 3 C2.525 2.01 2.525 2.01 0 1 C0 0.67 0 0.34 0 0 Z " transform="translate(133,46)" style="fill: #C6953C;"/><path d="M0 0 C2.375 0.3125 2.375 0.3125 5 1 C5.66 1.99 6.32 2.98 7 4 C4.69 3.67 2.38 3.34 0 3 C0 2.01 0 1.02 0 0 Z " transform="translate(219,25)" style="fill: #989596;"/><path d="M0 0 C1.98 1.65 3.96 3.3 6 5 C5.67 5.66 5.34 6.32 5 7 C2.69 5.35 0.38 3.7 -2 2 C-1.34 1.34 -0.68 0.68 0 0 Z " transform="translate(134,25)" style="fill: #E0C05B;"/><path d="M0 0 C1.32 0 2.64 0 4 0 C5.75 2 5.75 2 7 4 C6.67 4.66 6.34 5.32 6 6 C5.01 5.34 4.02 4.68 3 4 C3 3.34 3 2.68 3 2 C2.01 2 1.02 2 0 2 C0 1.34 0 0.68 0 0 Z " transform="translate(223,23)" style="fill: #6A6768;"/></svg>